# Blender 4.2.3 LTS
# www.blender.org
mtllib left_legv2.mtl
o left_leg
v -1.616631 -0.436078 -0.410577
v -1.616631 -0.036079 -0.409755
v -1.616631 -0.435256 -0.810576
v -1.616631 -0.836078 -0.411400
v -1.616631 -0.436901 -0.010578
v -1.616631 -0.437723 0.389421
v -1.616631 -0.836900 -0.011400
v -1.616631 -0.036902 -0.009755
v -1.216631 -0.036902 -0.009755
v -1.616631 -0.037724 0.390244
v -1.216631 -0.037724 0.390244
v -1.616631 -0.038547 0.790243
v -1.216631 -0.038547 0.790243
v -1.616631 -0.438546 0.789420
v -1.216631 -0.438546 0.789420
v -1.616631 -0.838545 0.788598
v -1.216631 -0.838545 0.788598
v -1.616631 -1.238544 0.787776
v -1.616631 -0.837722 0.388599
v -1.616631 -1.237722 0.387776
v -1.616631 -1.236899 -0.012223
v -1.616631 -1.637721 0.386954
v -1.616631 -1.638543 0.786953
v -1.616631 -1.636898 -0.013045
v -1.616631 -2.037720 0.386132
v -1.616631 -2.038542 0.786131
v -1.616631 -2.036897 -0.013868
v -1.616631 -2.437719 0.385309
v -1.616631 -2.438541 0.785309
v -1.616631 -2.436896 -0.014690
v -1.616631 -2.837718 0.384486
v -1.616631 -2.838541 0.784486
v -1.616631 -2.836896 -0.015512
v -1.616631 -3.237717 0.383664
v -1.616631 -3.238539 0.783664
v -1.616631 -3.236895 -0.016335
v -1.616631 -3.637716 0.382841
v -1.616631 -3.638539 0.782841
v -1.616631 -3.636894 -0.017157
v -1.616631 -4.037715 0.382019
v -1.616631 -4.038538 0.782018
v -1.616631 -4.036893 -0.017980
v -1.616631 -4.437715 0.381197
v -1.616631 -4.438537 0.781196
v -1.616631 -4.436892 -0.018802
v -1.616631 -4.837713 0.380374
v -1.216631 -4.837713 0.380374
v -1.616631 -4.838536 0.780373
v -1.616631 -4.836891 -0.019625
v -1.216631 -4.836891 -0.019625
v -1.616631 -4.836069 -0.419624
v -1.616631 -4.436069 -0.418801
v -1.616631 -4.835246 -0.819623
v -1.216631 -4.836069 -0.419624
v -0.816631 -4.836069 -0.419624
v -1.216631 -4.835246 -0.819623
v -1.216631 -4.435247 -0.818801
v -0.816631 -4.835246 -0.819623
v -0.816631 -4.435247 -0.818801
v -0.416631 -4.835246 -0.819623
v -0.416631 -4.435247 -0.818801
v -0.016631 -4.835246 -0.819623
v -0.416631 -4.836069 -0.419624
v -0.416631 -4.836891 -0.019625
v -0.016631 -4.836069 -0.419624
v -0.016631 -4.436069 -0.418801
v -0.016631 -4.836891 -0.019625
v -0.016631 -4.436892 -0.018802
v -0.016631 -4.837713 0.380374
v -0.416631 -4.837713 0.380374
v -0.016631 -4.838536 0.780373
v -0.016631 -4.437715 0.381197
v -0.016631 -4.438537 0.781196
v -0.016631 -4.037715 0.382019
v -0.016631 -4.038538 0.782018
v -0.016631 -3.637716 0.382841
v -0.016631 -4.036893 -0.017980
v -0.016631 -3.636894 -0.017157
v -0.016631 -4.036070 -0.417979
v -0.016631 -3.636072 -0.417157
v -0.016631 -4.035248 -0.817978
v -0.416631 -4.035248 -0.817978
v -0.016631 -4.435247 -0.818801
v -0.016631 -3.635249 -0.817155
v -0.416631 -3.635249 -0.817155
v -0.016631 -3.235250 -0.816333
v -0.416631 -3.235250 -0.816333
v -0.016631 -2.835251 -0.815511
v -0.016631 -3.236072 -0.416334
v -0.016631 -2.836074 -0.415512
v -0.016631 -3.236895 -0.016335
v -0.016631 -2.836896 -0.015512
v -0.016631 -3.237717 0.383664
v -0.016631 -3.238539 0.783664
v -0.016631 -2.837718 0.384486
v -0.016631 -2.838541 0.784486
v -0.016631 -2.437719 0.385309
v -0.016631 -2.438541 0.785309
v -0.016631 -2.037720 0.386132
v -0.016631 -2.436896 -0.014690
v -0.016631 -2.036897 -0.013868
v -0.016631 -2.436074 -0.414689
v -0.016631 -2.036075 -0.413866
v -0.016631 -2.435252 -0.814688
v -0.416631 -2.435252 -0.814688
v -0.016631 -2.035252 -0.813866
v -0.416631 -2.035252 -0.813866
v -0.016631 -1.635253 -0.813043
v -0.416631 -1.635253 -0.813043
v -0.016631 -1.235254 -0.812221
v -0.016631 -1.636076 -0.413044
v -0.016631 -1.236077 -0.412222
v -0.016631 -1.636898 -0.013045
v -0.016631 -1.236899 -0.012223
v -0.016631 -1.637721 0.386954
v -0.016631 -1.638543 0.786953
v -0.016631 -1.237722 0.387776
v -0.016631 -1.238544 0.787776
v -0.016631 -0.837722 0.388599
v -0.016631 -0.838545 0.788598
v -0.016631 -0.437723 0.389421
v -0.016631 -0.836900 -0.011400
v -0.016631 -0.436901 -0.010578
v -0.016631 -0.836078 -0.411400
v -0.016631 -0.436078 -0.410577
v -0.016631 -0.835255 -0.811399
v -0.416631 -0.835255 -0.811399
v -0.016631 -0.435256 -0.810576
v -0.016631 -0.035257 -0.809754
v -0.416631 -0.435256 -0.810576
v -0.416631 -0.035257 -0.809754
v -0.816631 -0.435256 -0.810576
v -1.216631 -0.435256 -0.810576
v -0.816631 -0.835255 -0.811399
v -0.816631 -0.035257 -0.809754
v -1.216631 -0.035257 -0.809754
v -0.816631 -0.036079 -0.409755
v -1.216631 -0.036079 -0.409755
v -0.816631 -0.036902 -0.009755
v -0.416631 -0.036079 -0.409755
v -0.416631 -0.036902 -0.009755
v -0.016631 -0.036079 -0.409755
v -0.016631 -0.036902 -0.009755
v -0.016631 -0.037724 0.390244
v -0.016631 -0.038547 0.790243
v -0.416631 -0.037724 0.390244
v -0.416631 -0.038547 0.790243
v -0.816631 -0.037724 0.390244
v -0.816631 -0.038547 0.790243
v -0.816631 -0.438546 0.789420
v -0.416631 -0.438546 0.789420
v -0.816631 -0.838545 0.788598
v -0.416631 -0.838545 0.788598
v -0.816631 -1.238544 0.787776
v -0.416631 -1.238544 0.787776
v -1.216631 -1.238544 0.787776
v -0.816631 -1.638543 0.786953
v -0.416631 -1.638543 0.786953
v -1.216631 -1.638543 0.786953
v -0.816631 -2.038542 0.786131
v -0.416631 -2.038542 0.786131
v -1.216631 -2.038542 0.786131
v -0.816631 -2.438541 0.785309
v -0.416631 -2.438541 0.785309
v -1.216631 -2.438541 0.785309
v -0.816631 -2.838541 0.784486
v -0.416631 -2.838541 0.784486
v -1.216631 -2.838541 0.784486
v -0.816631 -3.238539 0.783664
v -0.416631 -3.238539 0.783664
v -1.216631 -3.238539 0.783664
v -0.816631 -3.638539 0.782841
v -0.416631 -3.638539 0.782841
v -1.216631 -3.638539 0.782841
v -0.816631 -4.038538 0.782018
v -0.416631 -4.038538 0.782018
v -1.216631 -4.038538 0.782018
v -0.816631 -4.438537 0.781196
v -0.416631 -4.438537 0.781196
v -1.216631 -4.438537 0.781196
v -0.816631 -4.838536 0.780373
v -0.416631 -4.838536 0.780373
v -1.216631 -4.838536 0.780373
v -0.816631 -4.837713 0.380374
v -0.816631 -4.836891 -0.019625
v -0.016631 -3.638539 0.782841
v -0.016631 -2.038542 0.786131
v -0.016631 -0.438546 0.789420
v -1.616631 -0.035257 -0.809754
v -1.216631 -0.835255 -0.811399
v -0.816631 -1.235254 -0.812221
v -1.216631 -1.235254 -0.812221
v -0.416631 -1.235254 -0.812221
v -0.816631 -1.635253 -0.813043
v -1.216631 -1.635253 -0.813043
v -0.816631 -2.035252 -0.813866
v -1.216631 -2.035252 -0.813866
v -0.816631 -2.435252 -0.814688
v -1.216631 -2.435252 -0.814688
v -0.816631 -2.835251 -0.815511
v -1.216631 -2.835251 -0.815511
v -0.416631 -2.835251 -0.815511
v -0.816631 -3.235250 -0.816333
v -1.216631 -3.235250 -0.816333
v -0.816631 -3.635249 -0.817155
v -1.216631 -3.635249 -0.817155
v -0.816631 -4.035248 -0.817978
v -1.216631 -4.035248 -0.817978
v -1.616631 -4.035248 -0.817978
v -1.616631 -4.036070 -0.417979
v -1.616631 -4.435247 -0.818801
v -1.616631 -3.635249 -0.817155
v -1.616631 -3.636072 -0.417157
v -1.616631 -3.235250 -0.816333
v -1.616631 -3.236072 -0.416334
v -1.616631 -2.835251 -0.815511
v -1.616631 -2.836074 -0.415512
v -1.616631 -2.435252 -0.814688
v -1.616631 -2.436074 -0.414689
v -1.616631 -2.035252 -0.813866
v -1.616631 -2.036075 -0.413866
v -1.616631 -1.635253 -0.813043
v -1.616631 -1.636076 -0.413044
v -1.616631 -1.235254 -0.812221
v -1.616631 -1.236077 -0.412222
v -1.616631 -0.835255 -0.811399
vn -1.0000 -0.0000 -0.0000
vn -0.0000 1.0000 0.0021
vn -0.0000 -0.0021 1.0000
vn -0.0000 -1.0000 -0.0021
vn -0.0000 0.0021 -1.0000
vn 1.0000 -0.0000 -0.0000
vt 0.595532 0.030000
vt 0.595532 0.010000
vt 0.615719 0.010000
vt 0.615719 0.030000
vt 0.635907 0.010000
vt 0.635907 0.030000
vt 0.615719 0.050000
vt 0.635907 0.050000
vt 0.595532 0.050000
vt 0.575344 0.030000
vt 0.575344 0.010000
vt 0.575344 0.050000
vt 0.272532 0.777279
vt 0.292719 0.777279
vt 0.292719 0.791421
vt 0.272532 0.791421
vt 0.292719 0.805564
vt 0.272532 0.805564
vt 0.292719 0.819706
vt 0.272532 0.819706
vt 0.555157 0.030000
vt 0.555157 0.010000
vt 0.272532 0.833848
vt 0.292719 0.833848
vt 0.272532 0.847990
vt 0.292719 0.847990
vt 0.555157 0.050000
vt 0.272532 0.862132
vt 0.292719 0.862132
vt 0.555157 0.070000
vt 0.575344 0.070000
vt 0.595532 0.070000
vt 0.555157 0.090000
vt 0.575344 0.090000
vt 0.595532 0.090000
vt 0.555157 0.110000
vt 0.575344 0.110000
vt 0.595532 0.110000
vt 0.555157 0.130000
vt 0.575344 0.130000
vt 0.595532 0.130000
vt 0.555157 0.150000
vt 0.575344 0.150000
vt 0.595532 0.150000
vt 0.555157 0.170000
vt 0.575344 0.170000
vt 0.595532 0.170000
vt 0.555157 0.190000
vt 0.575344 0.190000
vt 0.595532 0.190000
vt 0.555157 0.210000
vt 0.575345 0.210000
vt 0.595532 0.210000
vt 0.555157 0.230000
vt 0.575345 0.230000
vt 0.595532 0.230000
vt 0.555157 0.250000
vt 0.575345 0.250000
vt 0.595532 0.250000
vt 0.872245 0.750000
vt 0.872245 0.730000
vt 0.886519 0.730000
vt 0.886519 0.750000
vt 0.260706 0.882132
vt 0.260706 0.902132
vt 0.246431 0.902132
vt 0.246431 0.882132
vt 0.857970 0.750000
vt 0.857970 0.730000
vt 0.615719 0.230000
vt 0.615719 0.250000
vt 0.635907 0.230000
vt 0.635907 0.250000
vt 0.387744 0.923137
vt 0.387744 0.903137
vt 0.402019 0.903137
vt 0.402019 0.923137
vt 0.857970 0.710000
vt 0.872245 0.710000
vt 0.387744 0.883137
vt 0.402019 0.883137
vt 0.373469 0.903137
vt 0.373469 0.883137
vt 0.373469 0.923137
vt 0.373469 0.863137
vt 0.387744 0.863137
vt 0.402019 0.863137
vt 0.373469 0.843137
vt 0.387744 0.843137
vt 0.402019 0.843137
vt 0.857970 0.690000
vt 0.872245 0.690000
vt 0.857970 0.670000
vt 0.872245 0.670000
vt 0.615720 0.270000
vt 0.615720 0.290000
vt 0.595532 0.290000
vt 0.595532 0.270000
vt 0.635907 0.270000
vt 0.635907 0.290000
vt 0.575345 0.290000
vt 0.575345 0.270000
vt 0.886519 0.670000
vt 0.886519 0.690000
vt 0.260706 0.942132
vt 0.260706 0.962132
vt 0.246431 0.962132
vt 0.246431 0.942132
vt 0.555157 0.290000
vt 0.555157 0.270000
vt 0.575345 0.310000
vt 0.555157 0.310000
vt 0.595532 0.310000
vt 0.575345 0.330000
vt 0.555157 0.330000
vt 0.595532 0.330000
vt 0.615720 0.310000
vt 0.615720 0.330000
vt 0.635907 0.310000
vt 0.635907 0.330000
vt 0.872245 0.070000
vt 0.886519 0.070000
vt 0.886519 0.090000
vt 0.872245 0.090000
vt 0.857970 0.070000
vt 0.857970 0.090000
vt 0.450756 0.863137
vt 0.436481 0.863137
vt 0.436481 0.843137
vt 0.450756 0.843137
vt 0.635907 0.350000
vt 0.615720 0.350000
vt 0.422206 0.863137
vt 0.422206 0.843137
vt 0.635907 0.370000
vt 0.615720 0.370000
vt 0.595532 0.370000
vt 0.595532 0.350000
vt 0.575345 0.370000
vt 0.575345 0.350000
vt 0.555157 0.350000
vt 0.555157 0.370000
vt 0.575345 0.390000
vt 0.555157 0.390000
vt 0.595532 0.390000
vt 0.575345 0.410000
vt 0.555157 0.410000
vt 0.595532 0.410000
vt 0.615720 0.390000
vt 0.615720 0.410000
vt 0.635907 0.390000
vt 0.635907 0.410000
vt 0.488682 0.710000
vt 0.502956 0.710000
vt 0.502956 0.730000
vt 0.488682 0.730000
vt 0.474407 0.710000
vt 0.474407 0.730000
vt 0.517231 0.710000
vt 0.517231 0.730000
vt 0.635907 0.430000
vt 0.615720 0.430000
vt 0.709730 0.850000
vt 0.724005 0.850000
vt 0.724005 0.870000
vt 0.709730 0.870000
vt 0.635907 0.450000
vt 0.615720 0.450000
vt 0.595532 0.450000
vt 0.595532 0.430000
vt 0.575345 0.450000
vt 0.575345 0.430000
vt 0.555157 0.430000
vt 0.555157 0.450000
vt 0.575345 0.470000
vt 0.555157 0.470000
vt 0.595532 0.470000
vt 0.575345 0.490000
vt 0.555157 0.490000
vt 0.595532 0.490000
vt 0.615720 0.470000
vt 0.615720 0.490000
vt 0.635907 0.470000
vt 0.635907 0.490000
vt 0.738279 0.850000
vt 0.752554 0.850000
vt 0.752554 0.870000
vt 0.738279 0.870000
vt 0.635907 0.510000
vt 0.615720 0.510000
vt 0.603894 0.910000
vt 0.589619 0.910000
vt 0.589619 0.890000
vt 0.603894 0.890000
vt 0.603894 0.930000
vt 0.589619 0.930000
vt 0.738279 0.830000
vt 0.752554 0.830000
vt 0.603894 0.950000
vt 0.589619 0.950000
vt 0.738279 0.810000
vt 0.752554 0.810000
vt 0.252344 0.763137
vt 0.272532 0.763137
vt 0.252344 0.777279
vt 0.232157 0.763137
vt 0.232157 0.777279
vt 0.252344 0.791421
vt 0.232157 0.791421
vt 0.211969 0.763137
vt 0.211969 0.777279
vt 0.211969 0.791421
vt 0.595532 0.510000
vt 0.232157 0.805564
vt 0.211969 0.805564
vt 0.575345 0.510000
vt 0.555157 0.510000
vt 0.232157 0.819706
vt 0.211969 0.819706
vt 0.252344 0.805564
vt 0.252344 0.819706
vt 0.232157 0.833848
vt 0.252344 0.833848
vt 0.232157 0.847990
vt 0.252344 0.847990
vt 0.232157 0.862132
vt 0.252344 0.862132
vt 0.872245 0.290000
vt 0.886519 0.290000
vt 0.886519 0.310000
vt 0.872245 0.310000
vt 0.886519 0.330000
vt 0.872245 0.330000
vt 0.857970 0.290000
vt 0.857970 0.310000
vt 0.857970 0.330000
vt 0.810668 0.950000
vt 0.796393 0.950000
vt 0.796393 0.930000
vt 0.810668 0.930000
vt 0.796393 0.910000
vt 0.810668 0.910000
vt 0.955444 0.290000
vt 0.969719 0.290000
vt 0.969719 0.310000
vt 0.955444 0.310000
vt 0.969719 0.330000
vt 0.955444 0.330000
vt 0.934242 0.910000
vt 0.948517 0.910000
vt 0.948517 0.930000
vt 0.934242 0.930000
vt 0.948517 0.950000
vt 0.934242 0.950000
vt 0.872245 0.130000
vt 0.886519 0.130000
vt 0.886519 0.150000
vt 0.872245 0.150000
vt 0.886519 0.170000
vt 0.872245 0.170000
vt 0.857970 0.130000
vt 0.857970 0.150000
vt 0.857970 0.170000
vt 0.982979 0.950000
vt 0.968704 0.950000
vt 0.968704 0.930000
vt 0.982979 0.930000
vt 0.968704 0.910000
vt 0.982979 0.910000
vt 0.933227 0.810000
vt 0.947502 0.810000
vt 0.947502 0.830000
vt 0.933227 0.830000
vt 0.947502 0.850000
vt 0.933227 0.850000
vt 0.260706 0.922132
vt 0.246431 0.922132
vt 0.886519 0.710000
vt 0.947502 0.870000
vt 0.933227 0.870000
vt 0.933227 0.790000
vt 0.947502 0.790000
vt 0.968704 0.890000
vt 0.982979 0.890000
vt 0.982979 0.970000
vt 0.968704 0.970000
vt 0.872245 0.190000
vt 0.857970 0.190000
vt 0.857970 0.110000
vt 0.872245 0.110000
vt 0.886519 0.190000
vt 0.886519 0.110000
vt 0.948517 0.970000
vt 0.934242 0.970000
vt 0.934242 0.890000
vt 0.948517 0.890000
vt 0.969719 0.350000
vt 0.955444 0.350000
vt 0.955444 0.270000
vt 0.969719 0.270000
vt 0.796393 0.890000
vt 0.810668 0.890000
vt 0.810668 0.970000
vt 0.796393 0.970000
vt 0.872245 0.350000
vt 0.857970 0.350000
vt 0.857970 0.270000
vt 0.872245 0.270000
vt 0.886519 0.350000
vt 0.886519 0.270000
vt 0.211969 0.862132
vt 0.211969 0.847990
vt 0.211969 0.833848
vt 0.292719 0.763137
vt 0.603894 0.970000
vt 0.589619 0.970000
vt 0.724005 0.810000
vt 0.724005 0.830000
vt 0.709730 0.810000
vt 0.709730 0.830000
vt 0.502956 0.670000
vt 0.517231 0.670000
vt 0.517231 0.690000
vt 0.502956 0.690000
vt 0.488682 0.670000
vt 0.488682 0.690000
vt 0.474407 0.670000
vt 0.474407 0.690000
vt 0.436481 0.903137
vt 0.422206 0.903137
vt 0.422206 0.883137
vt 0.436481 0.883137
vt 0.450756 0.903137
vt 0.450756 0.883137
vt 0.872245 0.030000
vt 0.886519 0.030000
vt 0.886519 0.050000
vt 0.872245 0.050000
vt 0.857970 0.030000
vt 0.857970 0.050000
vt 0.872245 0.010000
vt 0.886519 0.010000
vt 0.857970 0.010000
vt 0.615719 0.210000
vt 0.615720 0.190000
vt 0.635907 0.190000
vt 0.635907 0.210000
vt 0.615719 0.170000
vt 0.635907 0.170000
vt 0.450756 0.923137
vt 0.436481 0.923137
vt 0.615719 0.150000
vt 0.635907 0.150000
vt 0.422206 0.923137
vt 0.615719 0.130000
vt 0.635907 0.130000
vt 0.474407 0.650000
vt 0.488682 0.650000
vt 0.615719 0.110000
vt 0.635907 0.110000
vt 0.502956 0.650000
vt 0.615719 0.090000
vt 0.635907 0.090000
vt 0.517231 0.650000
vt 0.615719 0.070000
vt 0.635907 0.070000
vt 0.709730 0.790000
vt 0.724005 0.790000
vt 0.738279 0.790000
vt 0.752554 0.790000
s 1
f 5/1/1 8/2/1 2/3/1 1/4/1
f 1/4/1 2/3/1 189/5/1 3/6/1
f 4/7/1 1/4/1 3/6/1 226/8/1
f 7/9/1 5/1/1 1/4/1 4/7/1
f 6/10/1 10/11/1 8/2/1 5/1/1
f 19/12/1 6/10/1 5/1/1 7/9/1
f 138/13/2 2/14/2 8/15/2 9/16/2
f 9/16/2 8/15/2 10/17/2 11/18/2
f 11/18/2 10/17/2 12/19/2 13/20/2
f 14/21/1 12/22/1 10/11/1 6/10/1
f 15/23/3 13/20/3 12/19/3 14/24/3
f 17/25/3 15/23/3 14/24/3 16/26/3
f 16/27/1 14/21/1 6/10/1 19/12/1
f 156/28/3 17/25/3 16/26/3 18/29/3
f 18/30/1 16/27/1 19/12/1 20/31/1
f 20/31/1 19/12/1 7/9/1 21/32/1
f 23/33/1 18/30/1 20/31/1 22/34/1
f 22/34/1 20/31/1 21/32/1 24/35/1
f 26/36/1 23/33/1 22/34/1 25/37/1
f 25/37/1 22/34/1 24/35/1 27/38/1
f 29/39/1 26/36/1 25/37/1 28/40/1
f 28/40/1 25/37/1 27/38/1 30/41/1
f 32/42/1 29/39/1 28/40/1 31/43/1
f 31/43/1 28/40/1 30/41/1 33/44/1
f 35/45/1 32/42/1 31/43/1 34/46/1
f 34/46/1 31/43/1 33/44/1 36/47/1
f 38/48/1 35/45/1 34/46/1 37/49/1
f 37/49/1 34/46/1 36/47/1 39/50/1
f 41/51/1 38/48/1 37/49/1 40/52/1
f 40/52/1 37/49/1 39/50/1 42/53/1
f 44/54/1 41/51/1 40/52/1 43/55/1
f 43/55/1 40/52/1 42/53/1 45/56/1
f 48/57/1 44/54/1 43/55/1 46/58/1
f 46/58/1 43/55/1 45/56/1 49/59/1
f 49/60/4 50/61/4 47/62/4 46/63/4
f 46/64/4 47/65/4 183/66/4 48/67/4
f 51/68/4 54/69/4 50/61/4 49/60/4
f 49/59/1 45/56/1 52/70/1 51/71/1
f 51/71/1 52/70/1 211/72/1 53/73/1
f 53/74/4 56/75/4 54/76/4 51/77/4
f 54/69/4 55/78/4 185/79/4 50/61/4
f 56/75/4 58/80/4 55/81/4 54/76/4
f 56/75/5 57/82/5 59/83/5 58/80/5
f 53/74/5 211/84/5 57/82/5 56/75/5
f 58/80/5 59/83/5 61/85/5 60/86/5
f 58/80/4 60/86/4 63/87/4 55/81/4
f 60/86/5 61/85/5 83/88/5 62/89/5
f 60/86/4 62/89/4 65/90/4 63/87/4
f 55/78/4 63/91/4 64/92/4 185/79/4
f 63/91/4 65/93/4 67/94/4 64/92/4
f 65/95/6 66/96/6 68/97/6 67/98/6
f 62/99/6 83/100/6 66/96/6 65/95/6
f 67/98/6 68/97/6 72/101/6 69/102/6
f 64/92/4 67/94/4 69/103/4 70/104/4
f 70/105/4 69/106/4 71/107/4 182/108/4
f 69/102/6 72/101/6 73/109/6 71/110/6
f 72/101/6 74/111/6 75/112/6 73/109/6
f 68/97/6 77/113/6 74/111/6 72/101/6
f 74/111/6 76/114/6 186/115/6 75/112/6
f 77/113/6 78/116/6 76/114/6 74/111/6
f 79/117/6 80/118/6 78/116/6 77/113/6
f 66/96/6 79/117/6 77/113/6 68/97/6
f 81/119/6 84/120/6 80/118/6 79/117/6
f 83/100/6 81/119/6 79/117/6 66/96/6
f 82/121/5 85/122/5 84/123/5 81/124/5
f 61/125/5 82/121/5 81/124/5 83/126/5
f 85/127/5 87/128/5 86/129/5 84/130/5
f 84/120/6 86/131/6 89/132/6 80/118/6
f 87/128/5 202/133/5 88/134/5 86/129/5
f 86/131/6 88/135/6 90/136/6 89/132/6
f 89/132/6 90/136/6 92/137/6 91/138/6
f 80/118/6 89/132/6 91/138/6 78/116/6
f 91/138/6 92/137/6 95/139/6 93/140/6
f 78/116/6 91/138/6 93/140/6 76/114/6
f 76/114/6 93/140/6 94/141/6 186/115/6
f 93/140/6 95/139/6 96/142/6 94/141/6
f 95/139/6 97/143/6 98/144/6 96/142/6
f 92/137/6 100/145/6 97/143/6 95/139/6
f 97/143/6 99/146/6 187/147/6 98/144/6
f 100/145/6 101/148/6 99/146/6 97/143/6
f 102/149/6 103/150/6 101/148/6 100/145/6
f 90/136/6 102/149/6 100/145/6 92/137/6
f 104/151/6 106/152/6 103/150/6 102/149/6
f 88/135/6 104/151/6 102/149/6 90/136/6
f 105/153/5 107/154/5 106/155/5 104/156/5
f 202/157/5 105/153/5 104/156/5 88/158/5
f 107/154/5 109/159/5 108/160/5 106/155/5
f 106/152/6 108/161/6 111/162/6 103/150/6
f 109/163/5 193/164/5 110/165/5 108/166/5
f 108/161/6 110/167/6 112/168/6 111/162/6
f 111/162/6 112/168/6 114/169/6 113/170/6
f 103/150/6 111/162/6 113/170/6 101/148/6
f 113/170/6 114/169/6 117/171/6 115/172/6
f 101/148/6 113/170/6 115/172/6 99/146/6
f 99/146/6 115/172/6 116/173/6 187/147/6
f 115/172/6 117/171/6 118/174/6 116/173/6
f 117/171/6 119/175/6 120/176/6 118/174/6
f 114/169/6 122/177/6 119/175/6 117/171/6
f 119/175/6 121/178/6 188/179/6 120/176/6
f 122/177/6 123/180/6 121/178/6 119/175/6
f 124/181/6 125/182/6 123/180/6 122/177/6
f 112/168/6 124/181/6 122/177/6 114/169/6
f 126/183/6 128/184/6 125/182/6 124/181/6
f 110/167/6 126/183/6 124/181/6 112/168/6
f 127/185/5 130/186/5 128/187/5 126/188/5
f 193/164/5 127/185/5 126/188/5 110/165/5
f 128/184/6 129/189/6 142/190/6 125/182/6
f 130/191/5 131/192/5 129/193/5 128/194/5
f 132/195/5 135/196/5 131/192/5 130/191/5
f 134/197/5 132/198/5 130/186/5 127/185/5
f 133/199/5 136/200/5 135/196/5 132/195/5
f 190/201/5 133/202/5 132/198/5 134/197/5
f 135/203/2 136/204/2 138/13/2 137/205/2
f 131/206/2 135/203/2 137/205/2 140/207/2
f 137/205/2 138/13/2 9/16/2 139/208/2
f 140/207/2 137/205/2 139/208/2 141/209/2
f 129/210/2 131/206/2 140/207/2 142/211/2
f 142/211/2 140/207/2 141/209/2 143/212/2
f 125/182/6 142/190/6 143/213/6 123/180/6
f 143/212/2 141/209/2 146/214/2 144/215/2
f 123/180/6 143/213/6 144/216/6 121/178/6
f 121/178/6 144/216/6 145/217/6 188/179/6
f 144/215/2 146/214/2 147/218/2 145/219/2
f 146/214/2 148/220/2 149/221/2 147/218/2
f 141/209/2 139/208/2 148/220/2 146/214/2
f 148/220/2 11/18/2 13/20/2 149/221/2
f 139/208/2 9/16/2 11/18/2 148/220/2
f 151/222/3 147/218/3 149/221/3 150/223/3
f 150/223/3 149/221/3 13/20/3 15/23/3
f 153/224/3 151/222/3 150/223/3 152/225/3
f 152/225/3 150/223/3 15/23/3 17/25/3
f 155/226/3 153/224/3 152/225/3 154/227/3
f 154/227/3 152/225/3 17/25/3 156/28/3
f 158/228/3 155/229/3 154/230/3 157/231/3
f 157/231/3 154/230/3 156/232/3 159/233/3
f 161/234/3 158/228/3 157/231/3 160/235/3
f 160/235/3 157/231/3 159/233/3 162/236/3
f 164/237/3 161/238/3 160/239/3 163/240/3
f 163/240/3 160/239/3 162/241/3 165/242/3
f 167/243/3 164/244/3 163/245/3 166/246/3
f 166/246/3 163/245/3 165/247/3 168/248/3
f 170/249/3 167/250/3 166/251/3 169/252/3
f 169/252/3 166/251/3 168/253/3 171/254/3
f 173/255/3 170/256/3 169/257/3 172/258/3
f 172/258/3 169/257/3 171/259/3 174/260/3
f 176/261/3 173/255/3 172/258/3 175/262/3
f 175/262/3 172/258/3 174/260/3 177/263/3
f 179/264/3 176/265/3 175/266/3 178/267/3
f 178/267/3 175/266/3 177/268/3 180/269/3
f 182/270/3 179/271/3 178/272/3 181/273/3
f 181/273/3 178/272/3 180/274/3 183/275/3
f 184/276/4 70/105/4 182/108/4 181/277/4
f 47/65/4 184/276/4 181/277/4 183/66/4
f 50/61/4 185/79/4 184/278/4 47/62/4
f 185/79/4 64/92/4 70/104/4 184/278/4
f 183/275/3 180/274/3 44/279/3 48/280/3
f 71/281/3 73/282/3 179/271/3 182/270/3
f 180/269/3 177/268/3 41/283/3 44/284/3
f 73/285/3 75/286/3 176/265/3 179/264/3
f 177/263/3 174/260/3 38/287/3 41/288/3
f 75/289/3 186/290/3 173/255/3 176/261/3
f 174/260/3 171/259/3 35/291/3 38/287/3
f 186/290/3 94/292/3 170/256/3 173/255/3
f 171/254/3 168/253/3 32/293/3 35/294/3
f 94/295/3 96/296/3 167/250/3 170/249/3
f 168/248/3 165/247/3 29/297/3 32/298/3
f 96/299/3 98/300/3 164/244/3 167/243/3
f 165/242/3 162/241/3 26/301/3 29/302/3
f 98/303/3 187/304/3 161/238/3 164/237/3
f 162/236/3 159/233/3 23/305/3 26/306/3
f 187/307/3 116/308/3 158/228/3 161/234/3
f 159/233/3 156/232/3 18/309/3 23/305/3
f 116/308/3 118/310/3 155/229/3 158/228/3
f 118/311/3 120/312/3 153/224/3 155/226/3
f 120/312/3 188/313/3 151/222/3 153/224/3
f 188/313/3 145/219/3 147/218/3 151/222/3
f 136/204/2 189/314/2 2/14/2 138/13/2
f 3/315/5 189/316/5 136/200/5 133/199/5
f 192/317/5 190/201/5 134/197/5 191/318/5
f 191/318/5 134/197/5 127/185/5 193/164/5
f 195/319/5 192/317/5 191/318/5 194/320/5
f 194/320/5 191/318/5 193/164/5 109/163/5
f 197/321/5 195/322/5 194/323/5 196/324/5
f 196/324/5 194/323/5 109/159/5 107/154/5
f 199/325/5 197/321/5 196/324/5 198/326/5
f 198/326/5 196/324/5 107/154/5 105/153/5
f 201/327/5 199/325/5 198/326/5 200/328/5
f 200/328/5 198/326/5 105/153/5 202/157/5
f 204/329/5 201/330/5 200/331/5 203/332/5
f 203/332/5 200/331/5 202/133/5 87/128/5
f 206/333/5 204/329/5 203/332/5 205/334/5
f 205/334/5 203/332/5 87/128/5 85/127/5
f 208/335/5 206/336/5 205/337/5 207/338/5
f 207/338/5 205/337/5 85/122/5 82/121/5
f 57/339/5 208/335/5 207/338/5 59/340/5
f 59/340/5 207/338/5 82/121/5 61/125/5
f 209/341/5 212/342/5 206/336/5 208/335/5
f 211/343/5 209/341/5 208/335/5 57/339/5
f 210/344/1 213/345/1 212/346/1 209/347/1
f 52/70/1 210/344/1 209/347/1 211/72/1
f 213/345/1 215/348/1 214/349/1 212/346/1
f 212/350/5 214/351/5 204/329/5 206/333/5
f 215/348/1 217/352/1 216/353/1 214/349/1
f 214/351/5 216/354/5 201/330/5 204/329/5
f 217/352/1 219/355/1 218/356/1 216/353/1
f 216/357/5 218/358/5 199/325/5 201/327/5
f 219/355/1 221/359/1 220/360/1 218/356/1
f 218/358/5 220/361/5 197/321/5 199/325/5
f 221/359/1 223/362/1 222/363/1 220/360/1
f 220/361/5 222/364/5 195/322/5 197/321/5
f 223/362/1 225/365/1 224/366/1 222/363/1
f 222/367/5 224/368/5 192/317/5 195/319/5
f 225/365/1 4/7/1 226/8/1 224/366/1
f 224/368/5 226/369/5 190/201/5 192/317/5
f 226/369/5 3/370/5 133/202/5 190/201/5
f 24/35/1 21/32/1 225/365/1 223/362/1
f 21/32/1 7/9/1 4/7/1 225/365/1
f 27/38/1 24/35/1 223/362/1 221/359/1
f 30/41/1 27/38/1 221/359/1 219/355/1
f 33/44/1 30/41/1 219/355/1 217/352/1
f 36/47/1 33/44/1 217/352/1 215/348/1
f 39/50/1 36/47/1 215/348/1 213/345/1
f 42/53/1 39/50/1 213/345/1 210/344/1
f 45/56/1 42/53/1 210/344/1 52/70/1
