# Blender 4.2.3 LTS
# www.blender.org
mtllib left_handv2.mtl
o left_hand
v -3.229392 4.477639 -0.366205
v -3.229392 4.877637 -0.367228
v -3.229392 4.476615 -0.766204
v -3.229392 4.077641 -0.365182
v -3.229392 4.478662 0.033794
v -3.229392 4.479686 0.433792
v -3.229392 4.078664 0.034817
v -3.229392 4.878661 0.032770
v -2.829392 4.878661 0.032770
v -3.229392 4.879684 0.432769
v -2.829392 4.879684 0.432769
v -3.229392 4.880708 0.832767
v -2.829392 4.880708 0.832767
v -3.229392 4.480709 0.833791
v -2.829392 4.480709 0.833791
v -3.229392 4.080711 0.834814
v -2.829392 4.080711 0.834814
v -3.229392 3.680712 0.835838
v -3.229392 4.079687 0.434816
v -3.229392 3.679688 0.435839
v -3.229392 3.678665 0.035840
v -3.229392 3.279690 0.436863
v -3.229392 3.280713 0.836861
v -3.229392 3.278666 0.036864
v -3.229392 2.879691 0.437886
v -3.229392 2.880714 0.837885
v -3.229392 2.878668 0.037888
v -3.229392 2.479692 0.438910
v -3.229392 2.480716 0.838908
v -3.229392 2.478669 0.038911
v -3.229392 2.079694 0.439933
v -3.229392 2.080717 0.839932
v -3.229392 2.078671 0.039934
v -3.229392 1.679695 0.440956
v -3.229392 1.680719 0.840955
v -3.229392 1.678672 0.040958
v -3.229392 1.279697 0.441980
v -3.229392 1.280720 0.841979
v -3.229392 1.278673 0.041981
v -3.229392 0.879698 0.443004
v -3.229392 0.880722 0.843002
v -3.229392 0.878675 0.043005
v -3.229392 0.479699 0.444027
v -3.229392 0.480723 0.844026
v -3.229392 0.478675 0.044028
v -3.229392 0.079700 0.445050
v -2.829392 0.079700 0.445050
v -3.229392 0.080724 0.845049
v -3.229392 0.078677 0.045052
v -2.829392 0.078677 0.045052
v -3.229392 0.077653 -0.354947
v -3.229392 0.477652 -0.355970
v -3.229392 0.076630 -0.754946
v -2.829392 0.077653 -0.354947
v -2.429392 0.077653 -0.354947
v -2.829392 0.076630 -0.754946
v -2.829392 0.476629 -0.755969
v -2.429392 0.076630 -0.754946
v -2.429392 0.476629 -0.755969
v -2.029392 0.076630 -0.754946
v -2.029392 0.476629 -0.755969
v -1.629392 0.076630 -0.754946
v -2.029392 0.077653 -0.354947
v -2.029392 0.078677 0.045052
v -1.629392 0.077653 -0.354947
v -1.629392 0.477652 -0.355970
v -1.629392 0.078677 0.045052
v -1.629392 0.478675 0.044028
v -1.629392 0.079700 0.445050
v -2.029392 0.079700 0.445050
v -1.629392 0.080724 0.845049
v -1.629392 0.479699 0.444027
v -1.629392 0.480723 0.844026
v -1.629392 0.879698 0.443004
v -1.629392 0.880722 0.843002
v -1.629392 1.279697 0.441980
v -1.629392 0.878675 0.043005
v -1.629392 1.278673 0.041981
v -1.629392 0.877651 -0.356994
v -1.629392 1.277649 -0.358017
v -1.629392 0.876627 -0.756992
v -2.029392 0.876627 -0.756992
v -1.629392 0.476629 -0.755969
v -1.629392 1.276626 -0.758016
v -2.029392 1.276626 -0.758016
v -1.629392 1.676625 -0.759039
v -2.029392 1.676625 -0.759039
v -1.629392 2.076623 -0.760063
v -1.629392 1.677648 -0.359040
v -1.629392 2.077647 -0.360064
v -1.629392 1.678672 0.040958
v -1.629392 2.078671 0.039934
v -1.629392 1.679695 0.440956
v -1.629392 1.680719 0.840955
v -1.629392 2.079694 0.439933
v -1.629392 2.080717 0.839932
v -1.629392 2.479692 0.438910
v -1.629392 2.480716 0.838908
v -1.629392 2.879691 0.437886
v -1.629392 2.478669 0.038911
v -1.629392 2.878668 0.037888
v -1.629392 2.477646 -0.361088
v -1.629392 2.877644 -0.362111
v -1.629392 2.476622 -0.761087
v -2.029392 2.476622 -0.761087
v -1.629392 2.876621 -0.762110
v -2.029392 2.876621 -0.762110
v -1.629392 3.276619 -0.763133
v -2.029392 3.276619 -0.763133
v -1.629392 3.676618 -0.764157
v -1.629392 3.277643 -0.363135
v -1.629392 3.677642 -0.364158
v -1.629392 3.278666 0.036864
v -1.629392 3.678665 0.035840
v -1.629392 3.279690 0.436863
v -1.629392 3.280713 0.836861
v -1.629392 3.679688 0.435839
v -1.629392 3.680712 0.835838
v -1.629392 4.079687 0.434816
v -1.629392 4.080711 0.834814
v -1.629392 4.479686 0.433792
v -1.629392 4.078664 0.034817
v -1.629392 4.478662 0.033794
v -1.629392 4.077641 -0.365182
v -1.629392 4.477639 -0.366205
v -1.629392 4.076617 -0.765180
v -2.029392 4.076617 -0.765180
v -1.629392 4.476615 -0.766204
v -1.629392 4.876614 -0.767227
v -2.029392 4.476615 -0.766204
v -2.029392 4.876614 -0.767227
v -2.429392 4.476615 -0.766204
v -2.829392 4.476615 -0.766204
v -2.429392 4.076617 -0.765180
v -2.429392 4.876614 -0.767227
v -2.829392 4.876614 -0.767227
v -2.429392 4.877637 -0.367228
v -2.829392 4.877637 -0.367228
v -2.429392 4.878661 0.032770
v -2.029392 4.877637 -0.367228
v -2.029392 4.878661 0.032770
v -1.629392 4.877637 -0.367228
v -1.629392 4.878661 0.032770
v -1.629392 4.879684 0.432769
v -1.629392 4.880708 0.832767
v -2.029392 4.879684 0.432769
v -2.029392 4.880708 0.832767
v -2.429392 4.879684 0.432769
v -2.429392 4.880708 0.832767
v -2.429392 4.480709 0.833791
v -2.029392 4.480709 0.833791
v -2.429392 4.080711 0.834814
v -2.029392 4.080711 0.834814
v -2.429392 3.680712 0.835838
v -2.029392 3.680712 0.835838
v -2.829392 3.680712 0.835838
v -2.429392 3.280713 0.836861
v -2.029392 3.280713 0.836861
v -2.829392 3.280713 0.836861
v -2.429392 2.880714 0.837885
v -2.029392 2.880714 0.837885
v -2.829392 2.880714 0.837885
v -2.429392 2.480716 0.838908
v -2.029392 2.480716 0.838908
v -2.829392 2.480716 0.838908
v -2.429392 2.080717 0.839932
v -2.029392 2.080717 0.839932
v -2.829392 2.080717 0.839932
v -2.429392 1.680719 0.840955
v -2.029392 1.680719 0.840955
v -2.829392 1.680719 0.840955
v -2.429392 1.280720 0.841979
v -2.029392 1.280720 0.841979
v -2.829392 1.280720 0.841979
v -2.429392 0.880722 0.843002
v -2.029392 0.880722 0.843002
v -2.829392 0.880722 0.843002
v -2.429392 0.480723 0.844026
v -2.029392 0.480723 0.844026
v -2.829392 0.480723 0.844026
v -2.429392 0.080724 0.845049
v -2.029392 0.080724 0.845049
v -2.829392 0.080724 0.845049
v -2.429392 0.079700 0.445050
v -2.429392 0.078677 0.045052
v -1.629392 1.280720 0.841979
v -1.629392 2.880714 0.837885
v -1.629392 4.480709 0.833791
v -3.229392 4.876614 -0.767227
v -2.829392 4.076617 -0.765180
v -2.429392 3.676618 -0.764157
v -2.829392 3.676618 -0.764157
v -2.029392 3.676618 -0.764157
v -2.429392 3.276619 -0.763133
v -2.829392 3.276619 -0.763133
v -2.429392 2.876621 -0.762110
v -2.829392 2.876621 -0.762110
v -2.429392 2.476622 -0.761087
v -2.829392 2.476622 -0.761087
v -2.429392 2.076623 -0.760063
v -2.829392 2.076623 -0.760063
v -2.029392 2.076623 -0.760063
v -2.429392 1.676625 -0.759039
v -2.829392 1.676625 -0.759039
v -2.429392 1.276626 -0.758016
v -2.829392 1.276626 -0.758016
v -2.429392 0.876627 -0.756992
v -2.829392 0.876627 -0.756992
v -3.229392 0.876627 -0.756992
v -3.229392 0.877651 -0.356994
v -3.229392 0.476629 -0.755969
v -3.229392 1.276626 -0.758016
v -3.229392 1.277649 -0.358017
v -3.229392 1.676625 -0.759039
v -3.229392 1.677648 -0.359040
v -3.229392 2.076623 -0.760063
v -3.229392 2.077647 -0.360064
v -3.229392 2.476622 -0.761087
v -3.229392 2.477646 -0.361088
v -3.229392 2.876621 -0.762110
v -3.229392 2.877644 -0.362111
v -3.229392 3.276619 -0.763133
v -3.229392 3.277643 -0.363135
v -3.229392 3.676618 -0.764157
v -3.229392 3.677642 -0.364158
v -3.229392 4.076617 -0.765180
vn -1.0000 -0.0000 -0.0000
vn -0.0000 1.0000 -0.0026
vn -0.0000 0.0026 1.0000
vn -0.0000 -1.0000 0.0026
vn -0.0000 -0.0026 -1.0000
vn 1.0000 -0.0000 -0.0000
vt 0.797407 0.750000
vt 0.797407 0.770000
vt 0.777220 0.770000
vt 0.777220 0.750000
vt 0.757032 0.770000
vt 0.757032 0.750000
vt 0.777220 0.730000
vt 0.757032 0.730000
vt 0.797407 0.730000
vt 0.817595 0.750000
vt 0.817595 0.770000
vt 0.817595 0.730000
vt 0.024369 0.870000
vt 0.024369 0.890000
vt 0.010094 0.890000
vt 0.010094 0.870000
vt 0.341456 0.890000
vt 0.341456 0.910000
vt 0.327181 0.910000
vt 0.327181 0.890000
vt 0.312907 0.910000
vt 0.312907 0.890000
vt 0.837782 0.750000
vt 0.837782 0.770000
vt 0.727468 0.950000
vt 0.741743 0.950000
vt 0.741743 0.970000
vt 0.727468 0.970000
vt 0.920982 0.330000
vt 0.935256 0.330000
vt 0.935256 0.350000
vt 0.920982 0.350000
vt 0.837782 0.730000
vt 0.906707 0.330000
vt 0.906707 0.350000
vt 0.837782 0.710000
vt 0.817595 0.710000
vt 0.797407 0.710000
vt 0.837782 0.690000
vt 0.817595 0.690000
vt 0.797407 0.690000
vt 0.837782 0.670000
vt 0.817595 0.670000
vt 0.797407 0.670000
vt 0.837782 0.650000
vt 0.817595 0.650000
vt 0.797407 0.650000
vt 0.837782 0.630000
vt 0.817595 0.630000
vt 0.797407 0.630000
vt 0.837782 0.610000
vt 0.817595 0.610000
vt 0.797407 0.610000
vt 0.837782 0.590000
vt 0.817595 0.590000
vt 0.797407 0.590000
vt 0.837782 0.570000
vt 0.817595 0.570000
vt 0.797407 0.570000
vt 0.837782 0.550000
vt 0.817595 0.550000
vt 0.797407 0.550000
vt 0.837782 0.530000
vt 0.817595 0.530000
vt 0.797407 0.530000
vt 0.672818 0.890000
vt 0.672818 0.910000
vt 0.658544 0.910000
vt 0.658544 0.890000
vt 0.920982 0.570000
vt 0.920982 0.590000
vt 0.906707 0.590000
vt 0.906707 0.570000
vt 0.675268 0.870000
vt 0.675268 0.850000
vt 0.689542 0.850000
vt 0.689542 0.870000
vt 0.777220 0.550000
vt 0.777220 0.530000
vt 0.757032 0.550000
vt 0.757032 0.530000
vt 0.660993 0.870000
vt 0.660993 0.850000
vt 0.675268 0.830000
vt 0.689542 0.830000
vt 0.660993 0.830000
vt 0.646718 0.850000
vt 0.646718 0.830000
vt 0.646718 0.870000
vt 0.646718 0.810000
vt 0.660993 0.810000
vt 0.675268 0.810000
vt 0.646718 0.790000
vt 0.660993 0.790000
vt 0.675268 0.790000
vt 0.689542 0.810000
vt 0.689542 0.790000
vt 0.615720 0.530000
vt 0.615720 0.550000
vt 0.595532 0.550000
vt 0.595532 0.530000
vt 0.635907 0.530000
vt 0.635907 0.550000
vt 0.575345 0.550000
vt 0.575345 0.530000
vt 0.672819 0.950000
vt 0.672819 0.970000
vt 0.658544 0.970000
vt 0.658544 0.950000
vt 0.920982 0.630000
vt 0.920982 0.650000
vt 0.906707 0.650000
vt 0.906707 0.630000
vt 0.555157 0.550000
vt 0.555157 0.530000
vt 0.575345 0.570000
vt 0.555157 0.570000
vt 0.595532 0.570000
vt 0.575345 0.590000
vt 0.555157 0.590000
vt 0.595532 0.590000
vt 0.615720 0.570000
vt 0.615720 0.590000
vt 0.635907 0.570000
vt 0.635907 0.590000
vt 0.914054 0.910000
vt 0.899780 0.910000
vt 0.899780 0.890000
vt 0.914054 0.890000
vt 0.906707 0.430000
vt 0.920982 0.430000
vt 0.920982 0.450000
vt 0.906707 0.450000
vt 0.531506 0.470000
vt 0.517231 0.470000
vt 0.517231 0.450000
vt 0.531506 0.450000
vt 0.635907 0.610000
vt 0.615720 0.610000
vt 0.502956 0.470000
vt 0.502956 0.450000
vt 0.635907 0.630000
vt 0.615720 0.630000
vt 0.595532 0.630000
vt 0.595532 0.610000
vt 0.575345 0.630000
vt 0.575345 0.610000
vt 0.555157 0.610000
vt 0.555157 0.630000
vt 0.575345 0.650000
vt 0.555157 0.650000
vt 0.595532 0.650000
vt 0.575345 0.670000
vt 0.555157 0.670000
vt 0.595532 0.670000
vt 0.615720 0.650000
vt 0.615720 0.670000
vt 0.635907 0.650000
vt 0.635907 0.670000
vt 0.488682 0.470000
vt 0.474407 0.470000
vt 0.474407 0.450000
vt 0.488682 0.450000
vt 0.830855 0.950000
vt 0.845130 0.950000
vt 0.845130 0.970000
vt 0.830855 0.970000
vt 0.635907 0.690000
vt 0.615720 0.690000
vt 0.087380 0.830000
vt 0.073106 0.830000
vt 0.073106 0.810000
vt 0.087380 0.810000
vt 0.635907 0.710000
vt 0.615720 0.710000
vt 0.595532 0.710000
vt 0.595532 0.690000
vt 0.575345 0.710000
vt 0.575345 0.690000
vt 0.555157 0.690000
vt 0.555157 0.710000
vt 0.575345 0.730000
vt 0.555157 0.730000
vt 0.595532 0.730000
vt 0.575345 0.750000
vt 0.555157 0.750000
vt 0.595532 0.750000
vt 0.615720 0.730000
vt 0.615720 0.750000
vt 0.635907 0.730000
vt 0.635907 0.750000
vt 0.312907 0.690000
vt 0.327181 0.690000
vt 0.327181 0.710000
vt 0.312907 0.710000
vt 0.058831 0.830000
vt 0.058831 0.810000
vt 0.635907 0.770000
vt 0.615720 0.770000
vt 0.341456 0.690000
vt 0.341456 0.710000
vt 0.327181 0.670000
vt 0.341456 0.670000
vt 0.312907 0.670000
vt 0.327181 0.650000
vt 0.341456 0.650000
vt 0.312907 0.650000
vt 0.038643 0.850000
vt 0.038643 0.870000
vt 0.024369 0.850000
vt 0.038643 0.830000
vt 0.024369 0.830000
vt 0.010094 0.850000
vt 0.010094 0.830000
vt 0.038643 0.810000
vt 0.024369 0.810000
vt 0.010094 0.810000
vt 0.595532 0.770000
vt 0.341456 0.830000
vt 0.341456 0.850000
vt 0.327181 0.850000
vt 0.327181 0.830000
vt 0.575345 0.770000
vt 0.555157 0.770000
vt 0.312907 0.850000
vt 0.312907 0.830000
vt 0.327181 0.870000
vt 0.312907 0.870000
vt 0.341456 0.870000
vt 0.727468 0.910000
vt 0.741743 0.910000
vt 0.741743 0.930000
vt 0.727468 0.930000
vt 0.920982 0.290000
vt 0.935256 0.290000
vt 0.935256 0.310000
vt 0.920982 0.310000
vt 0.906707 0.290000
vt 0.906707 0.310000
vt 0.941169 0.590000
vt 0.955444 0.590000
vt 0.955444 0.610000
vt 0.941169 0.610000
vt 0.955444 0.630000
vt 0.941169 0.630000
vt 0.975631 0.390000
vt 0.989906 0.390000
vt 0.989906 0.410000
vt 0.975631 0.410000
vt 0.989906 0.430000
vt 0.975631 0.430000
vt 0.865317 0.910000
vt 0.879592 0.910000
vt 0.879592 0.930000
vt 0.865317 0.930000
vt 0.879592 0.950000
vt 0.865317 0.950000
vt 0.517231 0.570000
vt 0.531506 0.570000
vt 0.531506 0.590000
vt 0.517231 0.590000
vt 0.531506 0.610000
vt 0.517231 0.610000
vt 0.502956 0.570000
vt 0.502956 0.590000
vt 0.502956 0.610000
vt 0.488682 0.570000
vt 0.488682 0.590000
vt 0.488682 0.610000
vt 0.474407 0.570000
vt 0.474407 0.590000
vt 0.474407 0.610000
vt 0.850028 0.810000
vt 0.864303 0.810000
vt 0.864303 0.830000
vt 0.850028 0.830000
vt 0.864303 0.850000
vt 0.850028 0.850000
vt 0.835753 0.810000
vt 0.835753 0.830000
vt 0.835753 0.850000
vt 0.920982 0.610000
vt 0.906707 0.610000
vt 0.672818 0.930000
vt 0.658544 0.930000
vt 0.850028 0.870000
vt 0.835753 0.870000
vt 0.835753 0.790000
vt 0.850028 0.790000
vt 0.864303 0.870000
vt 0.864303 0.790000
vt 0.488682 0.630000
vt 0.474407 0.630000
vt 0.474407 0.550000
vt 0.488682 0.550000
vt 0.502956 0.630000
vt 0.502956 0.550000
vt 0.517231 0.630000
vt 0.517231 0.550000
vt 0.531506 0.630000
vt 0.531506 0.550000
vt 0.879592 0.970000
vt 0.865317 0.970000
vt 0.865317 0.890000
vt 0.879592 0.890000
vt 0.989906 0.450000
vt 0.975631 0.450000
vt 0.975631 0.370000
vt 0.989906 0.370000
vt 0.955444 0.650000
vt 0.941169 0.650000
vt 0.941169 0.570000
vt 0.955444 0.570000
vt 0.906707 0.270000
vt 0.920982 0.270000
vt 0.935256 0.270000
vt 0.727468 0.890000
vt 0.741743 0.890000
vt 0.038643 0.890000
vt 0.327181 0.630000
vt 0.341456 0.630000
vt 0.073106 0.870000
vt 0.058831 0.870000
vt 0.058831 0.850000
vt 0.073106 0.850000
vt 0.087380 0.870000
vt 0.087380 0.850000
vt 0.830855 0.910000
vt 0.845130 0.910000
vt 0.845130 0.930000
vt 0.830855 0.930000
vt 0.488682 0.510000
vt 0.474407 0.510000
vt 0.474407 0.490000
vt 0.488682 0.490000
vt 0.502956 0.510000
vt 0.502956 0.490000
vt 0.517231 0.510000
vt 0.517231 0.490000
vt 0.531506 0.510000
vt 0.531506 0.490000
vt 0.914054 0.950000
vt 0.899780 0.950000
vt 0.899780 0.930000
vt 0.914054 0.930000
vt 0.906707 0.390000
vt 0.920982 0.390000
vt 0.920982 0.410000
vt 0.906707 0.410000
vt 0.914054 0.970000
vt 0.899780 0.970000
vt 0.906707 0.370000
vt 0.920982 0.370000
vt 0.777220 0.570000
vt 0.777220 0.590000
vt 0.757032 0.590000
vt 0.757032 0.570000
vt 0.777220 0.610000
vt 0.757032 0.610000
vt 0.531506 0.530000
vt 0.517231 0.530000
vt 0.777220 0.630000
vt 0.757032 0.630000
vt 0.502956 0.530000
vt 0.777220 0.650000
vt 0.757032 0.650000
vt 0.488682 0.530000
vt 0.777220 0.670000
vt 0.757032 0.670000
vt 0.474407 0.530000
vt 0.777220 0.690000
vt 0.757032 0.690000
vt 0.830855 0.890000
vt 0.845130 0.890000
vt 0.777220 0.710000
vt 0.757032 0.710000
vt 0.087380 0.890000
vt 0.073106 0.890000
vt 0.058831 0.890000
vt 0.312907 0.630000
s 1
f 5/1/1 8/2/1 2/3/1 1/4/1
f 1/4/1 2/3/1 189/5/1 3/6/1
f 4/7/1 1/4/1 3/6/1 226/8/1
f 7/9/1 5/1/1 1/4/1 4/7/1
f 6/10/1 10/11/1 8/2/1 5/1/1
f 19/12/1 6/10/1 5/1/1 7/9/1
f 138/13/2 2/14/2 8/15/2 9/16/2
f 9/17/2 8/18/2 10/19/2 11/20/2
f 11/20/2 10/19/2 12/21/2 13/22/2
f 14/23/1 12/24/1 10/11/1 6/10/1
f 15/25/3 13/26/3 12/27/3 14/28/3
f 17/29/3 15/30/3 14/31/3 16/32/3
f 16/33/1 14/23/1 6/10/1 19/12/1
f 156/34/3 17/29/3 16/32/3 18/35/3
f 18/36/1 16/33/1 19/12/1 20/37/1
f 20/37/1 19/12/1 7/9/1 21/38/1
f 23/39/1 18/36/1 20/37/1 22/40/1
f 22/40/1 20/37/1 21/38/1 24/41/1
f 26/42/1 23/39/1 22/40/1 25/43/1
f 25/43/1 22/40/1 24/41/1 27/44/1
f 29/45/1 26/42/1 25/43/1 28/46/1
f 28/46/1 25/43/1 27/44/1 30/47/1
f 32/48/1 29/45/1 28/46/1 31/49/1
f 31/49/1 28/46/1 30/47/1 33/50/1
f 35/51/1 32/48/1 31/49/1 34/52/1
f 34/52/1 31/49/1 33/50/1 36/53/1
f 38/54/1 35/51/1 34/52/1 37/55/1
f 37/55/1 34/52/1 36/53/1 39/56/1
f 41/57/1 38/54/1 37/55/1 40/58/1
f 40/58/1 37/55/1 39/56/1 42/59/1
f 44/60/1 41/57/1 40/58/1 43/61/1
f 43/61/1 40/58/1 42/59/1 45/62/1
f 48/63/1 44/60/1 43/61/1 46/64/1
f 46/64/1 43/61/1 45/62/1 49/65/1
f 49/66/4 50/67/4 47/68/4 46/69/4
f 46/70/4 47/71/4 183/72/4 48/73/4
f 51/74/4 54/75/4 50/76/4 49/77/4
f 49/65/1 45/62/1 52/78/1 51/79/1
f 51/79/1 52/78/1 211/80/1 53/81/1
f 53/82/4 56/83/4 54/75/4 51/74/4
f 54/75/4 55/84/4 185/85/4 50/76/4
f 56/83/4 58/86/4 55/84/4 54/75/4
f 56/83/5 57/87/5 59/88/5 58/86/5
f 53/82/5 211/89/5 57/87/5 56/83/5
f 58/86/5 59/88/5 61/90/5 60/91/5
f 58/86/4 60/91/4 63/92/4 55/84/4
f 60/91/5 61/90/5 83/93/5 62/94/5
f 60/91/4 62/94/4 65/95/4 63/92/4
f 55/84/4 63/92/4 64/96/4 185/85/4
f 63/92/4 65/95/4 67/97/4 64/96/4
f 65/98/6 66/99/6 68/100/6 67/101/6
f 62/102/6 83/103/6 66/99/6 65/98/6
f 67/101/6 68/100/6 72/104/6 69/105/6
f 64/106/4 67/107/4 69/108/4 70/109/4
f 70/110/4 69/111/4 71/112/4 182/113/4
f 69/105/6 72/104/6 73/114/6 71/115/6
f 72/104/6 74/116/6 75/117/6 73/114/6
f 68/100/6 77/118/6 74/116/6 72/104/6
f 74/116/6 76/119/6 186/120/6 75/117/6
f 77/118/6 78/121/6 76/119/6 74/116/6
f 79/122/6 80/123/6 78/121/6 77/118/6
f 66/99/6 79/122/6 77/118/6 68/100/6
f 81/124/6 84/125/6 80/123/6 79/122/6
f 83/103/6 81/124/6 79/122/6 66/99/6
f 82/126/5 85/127/5 84/128/5 81/129/5
f 61/130/5 82/131/5 81/132/5 83/133/5
f 85/134/5 87/135/5 86/136/5 84/137/5
f 84/125/6 86/138/6 89/139/6 80/123/6
f 87/135/5 202/140/5 88/141/5 86/136/5
f 86/138/6 88/142/6 90/143/6 89/139/6
f 89/139/6 90/143/6 92/144/6 91/145/6
f 80/123/6 89/139/6 91/145/6 78/121/6
f 91/145/6 92/144/6 95/146/6 93/147/6
f 78/121/6 91/145/6 93/147/6 76/119/6
f 76/119/6 93/147/6 94/148/6 186/120/6
f 93/147/6 95/146/6 96/149/6 94/148/6
f 95/146/6 97/150/6 98/151/6 96/149/6
f 92/144/6 100/152/6 97/150/6 95/146/6
f 97/150/6 99/153/6 187/154/6 98/151/6
f 100/152/6 101/155/6 99/153/6 97/150/6
f 102/156/6 103/157/6 101/155/6 100/152/6
f 90/143/6 102/156/6 100/152/6 92/144/6
f 104/158/6 106/159/6 103/157/6 102/156/6
f 88/142/6 104/158/6 102/156/6 90/143/6
f 105/160/5 107/161/5 106/162/5 104/163/5
f 202/140/5 105/160/5 104/163/5 88/141/5
f 107/164/5 109/165/5 108/166/5 106/167/5
f 106/159/6 108/168/6 111/169/6 103/157/6
f 109/170/5 193/171/5 110/172/5 108/173/5
f 108/168/6 110/174/6 112/175/6 111/169/6
f 111/169/6 112/175/6 114/176/6 113/177/6
f 103/157/6 111/169/6 113/177/6 101/155/6
f 113/177/6 114/176/6 117/178/6 115/179/6
f 101/155/6 113/177/6 115/179/6 99/153/6
f 99/153/6 115/179/6 116/180/6 187/154/6
f 115/179/6 117/178/6 118/181/6 116/180/6
f 117/178/6 119/182/6 120/183/6 118/181/6
f 114/176/6 122/184/6 119/182/6 117/178/6
f 119/182/6 121/185/6 188/186/6 120/183/6
f 122/184/6 123/187/6 121/185/6 119/182/6
f 124/188/6 125/189/6 123/187/6 122/184/6
f 112/175/6 124/188/6 122/184/6 114/176/6
f 126/190/6 128/191/6 125/189/6 124/188/6
f 110/174/6 126/190/6 124/188/6 112/175/6
f 127/192/5 130/193/5 128/194/5 126/195/5
f 193/171/5 127/196/5 126/197/5 110/172/5
f 128/191/6 129/198/6 142/199/6 125/189/6
f 130/193/5 131/200/5 129/201/5 128/194/5
f 132/202/5 135/203/5 131/200/5 130/193/5
f 134/204/5 132/202/5 130/193/5 127/192/5
f 133/205/5 136/206/5 135/203/5 132/202/5
f 190/207/5 133/205/5 132/202/5 134/204/5
f 135/208/2 136/209/2 138/13/2 137/210/2
f 131/211/2 135/208/2 137/210/2 140/212/2
f 137/210/2 138/13/2 9/16/2 139/213/2
f 140/212/2 137/210/2 139/213/2 141/214/2
f 129/215/2 131/211/2 140/212/2 142/216/2
f 142/216/2 140/212/2 141/214/2 143/217/2
f 125/189/6 142/199/6 143/218/6 123/187/6
f 143/219/2 141/220/2 146/221/2 144/222/2
f 123/187/6 143/218/6 144/223/6 121/185/6
f 121/185/6 144/223/6 145/224/6 188/186/6
f 144/222/2 146/221/2 147/225/2 145/226/2
f 146/221/2 148/227/2 149/228/2 147/225/2
f 141/220/2 139/229/2 148/227/2 146/221/2
f 148/227/2 11/20/2 13/22/2 149/228/2
f 139/229/2 9/17/2 11/20/2 148/227/2
f 151/230/3 147/231/3 149/232/3 150/233/3
f 150/233/3 149/232/3 13/26/3 15/25/3
f 153/234/3 151/235/3 150/236/3 152/237/3
f 152/237/3 150/236/3 15/30/3 17/29/3
f 155/238/3 153/234/3 152/237/3 154/239/3
f 154/239/3 152/237/3 17/29/3 156/34/3
f 158/240/3 155/241/3 154/242/3 157/243/3
f 157/243/3 154/242/3 156/244/3 159/245/3
f 161/246/3 158/247/3 157/248/3 160/249/3
f 160/249/3 157/248/3 159/250/3 162/251/3
f 164/252/3 161/253/3 160/254/3 163/255/3
f 163/255/3 160/254/3 162/256/3 165/257/3
f 167/258/3 164/259/3 163/260/3 166/261/3
f 166/261/3 163/260/3 165/262/3 168/263/3
f 170/264/3 167/258/3 166/261/3 169/265/3
f 169/265/3 166/261/3 168/263/3 171/266/3
f 173/267/3 170/264/3 169/265/3 172/268/3
f 172/268/3 169/265/3 171/266/3 174/269/3
f 176/270/3 173/267/3 172/268/3 175/271/3
f 175/271/3 172/268/3 174/269/3 177/272/3
f 179/273/3 176/274/3 175/275/3 178/276/3
f 178/276/3 175/275/3 177/277/3 180/278/3
f 182/279/3 179/273/3 178/276/3 181/280/3
f 181/280/3 178/276/3 180/278/3 183/281/3
f 184/282/4 70/110/4 182/113/4 181/283/4
f 47/71/4 184/282/4 181/283/4 183/72/4
f 50/67/4 185/284/4 184/285/4 47/68/4
f 185/284/4 64/106/4 70/109/4 184/285/4
f 183/281/3 180/278/3 44/286/3 48/287/3
f 71/288/3 73/289/3 179/273/3 182/279/3
f 180/278/3 177/277/3 41/290/3 44/286/3
f 73/289/3 75/291/3 176/274/3 179/273/3
f 177/272/3 174/269/3 38/292/3 41/293/3
f 75/294/3 186/295/3 173/267/3 176/270/3
f 174/269/3 171/266/3 35/296/3 38/292/3
f 186/295/3 94/297/3 170/264/3 173/267/3
f 171/266/3 168/263/3 32/298/3 35/296/3
f 94/297/3 96/299/3 167/258/3 170/264/3
f 168/263/3 165/262/3 29/300/3 32/298/3
f 96/299/3 98/301/3 164/259/3 167/258/3
f 165/257/3 162/256/3 26/302/3 29/303/3
f 98/304/3 187/305/3 161/253/3 164/252/3
f 162/251/3 159/250/3 23/306/3 26/307/3
f 187/308/3 116/309/3 158/247/3 161/246/3
f 159/245/3 156/244/3 18/310/3 23/311/3
f 116/312/3 118/313/3 155/241/3 158/240/3
f 118/314/3 120/315/3 153/234/3 155/238/3
f 120/315/3 188/316/3 151/235/3 153/234/3
f 188/317/3 145/318/3 147/231/3 151/230/3
f 136/209/2 189/319/2 2/14/2 138/13/2
f 3/320/5 189/321/5 136/206/5 133/205/5
f 192/322/5 190/323/5 134/324/5 191/325/5
f 191/325/5 134/324/5 127/196/5 193/171/5
f 195/326/5 192/322/5 191/325/5 194/327/5
f 194/327/5 191/325/5 193/171/5 109/170/5
f 197/328/5 195/329/5 194/330/5 196/331/5
f 196/331/5 194/330/5 109/165/5 107/164/5
f 199/332/5 197/333/5 196/334/5 198/335/5
f 198/335/5 196/334/5 107/161/5 105/160/5
f 201/336/5 199/332/5 198/335/5 200/337/5
f 200/337/5 198/335/5 105/160/5 202/140/5
f 204/338/5 201/336/5 200/337/5 203/339/5
f 203/339/5 200/337/5 202/140/5 87/135/5
f 206/340/5 204/338/5 203/339/5 205/341/5
f 205/341/5 203/339/5 87/135/5 85/134/5
f 208/342/5 206/343/5 205/344/5 207/345/5
f 207/345/5 205/344/5 85/127/5 82/126/5
f 57/346/5 208/347/5 207/348/5 59/349/5
f 59/349/5 207/348/5 82/131/5 61/130/5
f 209/350/5 212/351/5 206/343/5 208/342/5
f 211/352/5 209/353/5 208/347/5 57/346/5
f 210/354/1 213/355/1 212/356/1 209/357/1
f 52/78/1 210/354/1 209/357/1 211/80/1
f 213/355/1 215/358/1 214/359/1 212/356/1
f 212/360/5 214/361/5 204/338/5 206/340/5
f 215/358/1 217/362/1 216/363/1 214/359/1
f 214/361/5 216/364/5 201/336/5 204/338/5
f 217/362/1 219/365/1 218/366/1 216/363/1
f 216/364/5 218/367/5 199/332/5 201/336/5
f 219/365/1 221/368/1 220/369/1 218/366/1
f 218/367/5 220/370/5 197/333/5 199/332/5
f 221/368/1 223/371/1 222/372/1 220/369/1
f 220/373/5 222/374/5 195/329/5 197/328/5
f 223/371/1 225/375/1 224/376/1 222/372/1
f 222/377/5 224/378/5 192/322/5 195/326/5
f 225/375/1 4/7/1 226/8/1 224/376/1
f 224/378/5 226/379/5 190/323/5 192/322/5
f 226/380/5 3/320/5 133/205/5 190/207/5
f 24/41/1 21/38/1 225/375/1 223/371/1
f 21/38/1 7/9/1 4/7/1 225/375/1
f 27/44/1 24/41/1 223/371/1 221/368/1
f 30/47/1 27/44/1 221/368/1 219/365/1
f 33/50/1 30/47/1 219/365/1 217/362/1
f 36/53/1 33/50/1 217/362/1 215/358/1
f 39/56/1 36/53/1 215/358/1 213/355/1
f 42/59/1 39/56/1 213/355/1 210/354/1
f 45/62/1 42/59/1 210/354/1 52/78/1
