# Blender 4.2.3 LTS
# www.blender.org
mtllib right_handv2.mtl
o right_hand
v 1.636329 4.474869 -0.431937
v 1.636329 4.874869 -0.432216
v 1.636329 4.474590 -0.831937
v 1.636329 4.074869 -0.431659
v 1.636329 4.475148 -0.031937
v 1.636329 4.475426 0.368063
v 1.636329 4.075148 -0.031659
v 1.636329 4.875147 -0.032216
v 2.036329 4.875147 -0.032216
v 1.636329 4.875426 0.367784
v 2.036329 4.875426 0.367784
v 1.636329 4.875705 0.767784
v 2.036329 4.875705 0.767784
v 1.636329 4.475705 0.768062
v 2.036329 4.475705 0.768062
v 1.636329 4.075705 0.768341
v 2.036329 4.075705 0.768341
v 1.636329 3.675705 0.768620
v 1.636329 4.075427 0.368341
v 1.636329 3.675426 0.368620
v 1.636329 3.675148 -0.031380
v 1.636329 3.275427 0.368898
v 1.636329 3.275705 0.768898
v 1.636329 3.275148 -0.031102
v 1.636329 2.875427 0.369177
v 1.636329 2.875705 0.769177
v 1.636329 2.875148 -0.030823
v 1.636329 2.475427 0.369455
v 1.636329 2.475706 0.769455
v 1.636329 2.475148 -0.030544
v 1.636329 2.075427 0.369734
v 1.636329 2.075706 0.769734
v 1.636329 2.075148 -0.030266
v 1.636329 1.675427 0.370013
v 1.636329 1.675706 0.770013
v 1.636329 1.675148 -0.029987
v 1.636329 1.275427 0.370291
v 1.636329 1.275706 0.770291
v 1.636329 1.275149 -0.029709
v 1.636329 0.875428 0.370570
v 1.636329 0.875707 0.770570
v 1.636329 0.875149 -0.029430
v 1.636329 0.475428 0.370848
v 1.636329 0.475707 0.770849
v 1.636329 0.475149 -0.029151
v 1.636329 0.075428 0.371127
v 2.036329 0.075428 0.371127
v 1.636329 0.075706 0.771127
v 1.636329 0.075150 -0.028872
v 2.036329 0.075150 -0.028872
v 1.636329 0.074871 -0.428873
v 1.636329 0.474871 -0.429151
v 1.636329 0.074592 -0.828872
v 2.036329 0.074871 -0.428873
v 2.436329 0.074871 -0.428873
v 2.036329 0.074592 -0.828872
v 2.036329 0.474592 -0.829151
v 2.436329 0.074592 -0.828872
v 2.436329 0.474592 -0.829151
v 2.836329 0.074592 -0.828872
v 2.836329 0.474592 -0.829151
v 3.236329 0.074592 -0.828872
v 2.836329 0.074871 -0.428873
v 2.836329 0.075150 -0.028872
v 3.236329 0.074871 -0.428873
v 3.236329 0.474871 -0.429151
v 3.236329 0.075150 -0.028872
v 3.236329 0.475149 -0.029151
v 3.236329 0.075428 0.371127
v 2.836329 0.075428 0.371127
v 3.236329 0.075706 0.771127
v 3.236329 0.475428 0.370848
v 3.236329 0.475707 0.770849
v 3.236329 0.875428 0.370570
v 3.236329 0.875707 0.770570
v 3.236329 1.275427 0.370291
v 3.236329 0.875149 -0.029430
v 3.236329 1.275149 -0.029709
v 3.236329 0.874870 -0.429429
v 3.236329 1.274870 -0.429708
v 3.236329 0.874592 -0.829429
v 2.836329 0.874592 -0.829429
v 3.236329 0.474592 -0.829151
v 3.236329 1.274591 -0.829708
v 2.836329 1.274591 -0.829708
v 3.236329 1.674592 -0.829987
v 2.836329 1.674592 -0.829987
v 3.236329 2.074591 -0.830266
v 3.236329 1.674870 -0.429987
v 3.236329 2.074870 -0.430265
v 3.236329 1.675148 -0.029987
v 3.236329 2.075148 -0.030266
v 3.236329 1.675427 0.370013
v 3.236329 1.675706 0.770013
v 3.236329 2.075427 0.369734
v 3.236329 2.075706 0.769734
v 3.236329 2.475427 0.369455
v 3.236329 2.475706 0.769455
v 3.236329 2.875427 0.369177
v 3.236329 2.475148 -0.030544
v 3.236329 2.875148 -0.030823
v 3.236329 2.474870 -0.430544
v 3.236329 2.874870 -0.430823
v 3.236329 2.474591 -0.830544
v 2.836329 2.474591 -0.830544
v 3.236329 2.874591 -0.830823
v 2.836329 2.874591 -0.830823
v 3.236329 3.274591 -0.831101
v 2.836329 3.274591 -0.831101
v 3.236329 3.674591 -0.831380
v 3.236329 3.274869 -0.431101
v 3.236329 3.674869 -0.431380
v 3.236329 3.275148 -0.031102
v 3.236329 3.675148 -0.031380
v 3.236329 3.275427 0.368898
v 3.236329 3.275705 0.768898
v 3.236329 3.675426 0.368620
v 3.236329 3.675705 0.768620
v 3.236329 4.075427 0.368341
v 3.236329 4.075705 0.768341
v 3.236329 4.475426 0.368063
v 3.236329 4.075148 -0.031659
v 3.236329 4.475148 -0.031937
v 3.236329 4.074869 -0.431659
v 3.236329 4.474869 -0.431937
v 3.236329 4.074591 -0.831658
v 2.836329 4.074591 -0.831658
v 3.236329 4.474590 -0.831937
v 3.236329 4.874590 -0.832216
v 2.836329 4.474590 -0.831937
v 2.836329 4.874590 -0.832216
v 2.436329 4.474590 -0.831937
v 2.036329 4.474590 -0.831937
v 2.436329 4.074591 -0.831658
v 2.436329 4.874590 -0.832216
v 2.036329 4.874590 -0.832216
v 2.436329 4.874869 -0.432216
v 2.036329 4.874869 -0.432216
v 2.436329 4.875147 -0.032216
v 2.836329 4.874869 -0.432216
v 2.836329 4.875147 -0.032216
v 3.236329 4.874869 -0.432216
v 3.236329 4.875147 -0.032216
v 3.236329 4.875426 0.367784
v 3.236329 4.875705 0.767784
v 2.836329 4.875426 0.367784
v 2.836329 4.875705 0.767784
v 2.436329 4.875426 0.367784
v 2.436329 4.875705 0.767784
v 2.436329 4.475705 0.768062
v 2.836329 4.475705 0.768062
v 2.436329 4.075705 0.768341
v 2.836329 4.075705 0.768341
v 2.436329 3.675705 0.768620
v 2.836329 3.675705 0.768620
v 2.036329 3.675705 0.768620
v 2.436329 3.275705 0.768898
v 2.836329 3.275705 0.768898
v 2.036329 3.275705 0.768898
v 2.436329 2.875705 0.769177
v 2.836329 2.875705 0.769177
v 2.036329 2.875705 0.769177
v 2.436329 2.475706 0.769455
v 2.836329 2.475706 0.769455
v 2.036329 2.475706 0.769455
v 2.436329 2.075706 0.769734
v 2.836329 2.075706 0.769734
v 2.036329 2.075706 0.769734
v 2.436329 1.675706 0.770013
v 2.836329 1.675706 0.770013
v 2.036329 1.675706 0.770013
v 2.436329 1.275706 0.770291
v 2.836329 1.275706 0.770291
v 2.036329 1.275706 0.770291
v 2.436329 0.875707 0.770570
v 2.836329 0.875707 0.770570
v 2.036329 0.875707 0.770570
v 2.436329 0.475707 0.770849
v 2.836329 0.475707 0.770849
v 2.036329 0.475707 0.770849
v 2.436329 0.075706 0.771127
v 2.836329 0.075706 0.771127
v 2.036329 0.075706 0.771127
v 2.436329 0.075428 0.371127
v 2.436329 0.075150 -0.028872
v 3.236329 1.275706 0.770291
v 3.236329 2.875705 0.769177
v 3.236329 4.475705 0.768062
v 1.636329 4.874590 -0.832216
v 2.036329 4.074591 -0.831658
v 2.436329 3.674591 -0.831380
v 2.036329 3.674591 -0.831380
v 2.836329 3.674591 -0.831380
v 2.436329 3.274591 -0.831101
v 2.036329 3.274591 -0.831101
v 2.436329 2.874591 -0.830823
v 2.036329 2.874591 -0.830823
v 2.436329 2.474591 -0.830544
v 2.036329 2.474591 -0.830544
v 2.436329 2.074591 -0.830266
v 2.036329 2.074591 -0.830266
v 2.836329 2.074591 -0.830266
v 2.436329 1.674592 -0.829987
v 2.036329 1.674592 -0.829987
v 2.436329 1.274591 -0.829708
v 2.036329 1.274591 -0.829708
v 2.436329 0.874592 -0.829429
v 2.036329 0.874592 -0.829429
v 1.636329 0.874592 -0.829429
v 1.636329 0.874870 -0.429429
v 1.636329 0.474592 -0.829151
v 1.636329 1.274591 -0.829708
v 1.636329 1.274870 -0.429708
v 1.636329 1.674592 -0.829987
v 1.636329 1.674870 -0.429987
v 1.636329 2.074591 -0.830266
v 1.636329 2.074870 -0.430265
v 1.636329 2.474591 -0.830544
v 1.636329 2.474870 -0.430544
v 1.636329 2.874591 -0.830823
v 1.636329 2.874870 -0.430823
v 1.636329 3.274591 -0.831101
v 1.636329 3.274869 -0.431101
v 1.636329 3.674591 -0.831380
v 1.636329 3.674869 -0.431380
v 1.636329 4.074591 -0.831658
vn -1.0000 -0.0000 -0.0000
vn -0.0000 1.0000 -0.0007
vn -0.0000 0.0007 1.0000
vn -0.0000 -1.0000 0.0007
vn -0.0000 -0.0007 -1.0000
vn 1.0000 -0.0000 -0.0000
vt 0.797407 0.290000
vt 0.797407 0.270000
vt 0.817595 0.270000
vt 0.817595 0.290000
vt 0.837782 0.270000
vt 0.837782 0.290000
vt 0.817595 0.310000
vt 0.837782 0.310000
vt 0.797407 0.310000
vt 0.777220 0.290000
vt 0.777220 0.270000
vt 0.777220 0.310000
vt 0.913040 0.850000
vt 0.913040 0.870000
vt 0.898765 0.870000
vt 0.898765 0.850000
vt 0.884490 0.870000
vt 0.884490 0.850000
vt 0.569432 0.950000
vt 0.569432 0.970000
vt 0.555157 0.970000
vt 0.555157 0.950000
vt 0.757032 0.290000
vt 0.757032 0.270000
vt 0.624081 0.950000
vt 0.638356 0.950000
vt 0.638356 0.970000
vt 0.624081 0.970000
vt 0.121843 0.870000
vt 0.136117 0.870000
vt 0.136117 0.890000
vt 0.121843 0.890000
vt 0.757032 0.310000
vt 0.107568 0.870000
vt 0.107568 0.890000
vt 0.757032 0.330000
vt 0.777220 0.330000
vt 0.797407 0.330000
vt 0.757032 0.350000
vt 0.777220 0.350000
vt 0.797407 0.350000
vt 0.757032 0.370000
vt 0.777220 0.370000
vt 0.797407 0.370000
vt 0.757032 0.390000
vt 0.777220 0.390000
vt 0.797407 0.390000
vt 0.757032 0.410000
vt 0.777220 0.410000
vt 0.797407 0.410000
vt 0.757032 0.430000
vt 0.777220 0.430000
vt 0.797407 0.430000
vt 0.757032 0.450000
vt 0.777220 0.450000
vt 0.797407 0.450000
vt 0.757032 0.470000
vt 0.777220 0.470000
vt 0.797407 0.470000
vt 0.757032 0.490000
vt 0.777220 0.490000
vt 0.797407 0.490000
vt 0.757032 0.510000
vt 0.777220 0.510000
vt 0.797407 0.510000
vt 0.488682 0.850000
vt 0.488682 0.870000
vt 0.474407 0.870000
vt 0.474407 0.850000
vt 0.292719 0.743137
vt 0.272532 0.743137
vt 0.272532 0.728995
vt 0.292719 0.728995
vt 0.211969 0.962132
vt 0.211969 0.942132
vt 0.226244 0.942132
vt 0.226244 0.962132
vt 0.817595 0.490000
vt 0.817595 0.510000
vt 0.837782 0.490000
vt 0.837782 0.510000
vt 0.872245 0.570000
vt 0.872245 0.590000
vt 0.857970 0.590000
vt 0.857970 0.570000
vt 0.211969 0.922132
vt 0.226244 0.922132
vt 0.872245 0.610000
vt 0.857970 0.610000
vt 0.886519 0.590000
vt 0.886519 0.610000
vt 0.886519 0.570000
vt 0.886519 0.630000
vt 0.872245 0.630000
vt 0.857970 0.630000
vt 0.886519 0.650000
vt 0.872245 0.650000
vt 0.857970 0.650000
vt 0.211969 0.902132
vt 0.226244 0.902132
vt 0.211969 0.882132
vt 0.226244 0.882132
vt 0.676282 0.770000
vt 0.676282 0.750000
vt 0.696470 0.750000
vt 0.696470 0.770000
vt 0.656095 0.770000
vt 0.656095 0.750000
vt 0.716657 0.750000
vt 0.716657 0.770000
vt 0.488682 0.910000
vt 0.488682 0.930000
vt 0.474407 0.930000
vt 0.474407 0.910000
vt 0.232157 0.743137
vt 0.211969 0.743137
vt 0.211969 0.728995
vt 0.232157 0.728995
vt 0.736845 0.750000
vt 0.736845 0.770000
vt 0.716657 0.730000
vt 0.736845 0.730000
vt 0.696470 0.730000
vt 0.716657 0.710000
vt 0.736845 0.710000
vt 0.696470 0.710000
vt 0.676282 0.730000
vt 0.676282 0.710000
vt 0.656095 0.730000
vt 0.656095 0.710000
vt 0.941169 0.730000
vt 0.955444 0.730000
vt 0.955444 0.750000
vt 0.941169 0.750000
vt 0.920982 0.490000
vt 0.906707 0.490000
vt 0.906707 0.470000
vt 0.920982 0.470000
vt 0.626531 0.810000
vt 0.612256 0.810000
vt 0.612256 0.790000
vt 0.626531 0.790000
vt 0.656095 0.690000
vt 0.676282 0.690000
vt 0.597981 0.810000
vt 0.597981 0.790000
vt 0.656095 0.670000
vt 0.676282 0.670000
vt 0.696470 0.670000
vt 0.696470 0.690000
vt 0.716657 0.670000
vt 0.716657 0.690000
vt 0.736845 0.690000
vt 0.736845 0.670000
vt 0.716657 0.650000
vt 0.736845 0.650000
vt 0.696470 0.650000
vt 0.716657 0.630000
vt 0.736845 0.630000
vt 0.696470 0.630000
vt 0.676282 0.650000
vt 0.676282 0.630000
vt 0.656095 0.650000
vt 0.656095 0.630000
vt 0.583706 0.810000
vt 0.569432 0.810000
vt 0.569432 0.790000
vt 0.583706 0.790000
vt 0.555157 0.810000
vt 0.555157 0.790000
vt 0.656095 0.610000
vt 0.676282 0.610000
vt 0.989906 0.590000
vt 0.975631 0.590000
vt 0.975631 0.570000
vt 0.989906 0.570000
vt 0.656095 0.590000
vt 0.676282 0.590000
vt 0.696470 0.590000
vt 0.696470 0.610000
vt 0.716657 0.590000
vt 0.716657 0.610000
vt 0.736845 0.610000
vt 0.736845 0.590000
vt 0.716657 0.570000
vt 0.736845 0.570000
vt 0.696470 0.570000
vt 0.716657 0.550000
vt 0.736845 0.550000
vt 0.696470 0.550000
vt 0.676282 0.570000
vt 0.676282 0.550000
vt 0.656095 0.570000
vt 0.656095 0.550000
vt 0.906707 0.170000
vt 0.920982 0.170000
vt 0.920982 0.190000
vt 0.906707 0.190000
vt 0.941169 0.530000
vt 0.955444 0.530000
vt 0.955444 0.550000
vt 0.941169 0.550000
vt 0.656095 0.530000
vt 0.676282 0.530000
vt 0.935256 0.170000
vt 0.935256 0.190000
vt 0.920982 0.150000
vt 0.935256 0.150000
vt 0.906707 0.150000
vt 0.920982 0.130000
vt 0.935256 0.130000
vt 0.906707 0.130000
vt 0.920982 0.710000
vt 0.920982 0.730000
vt 0.906707 0.730000
vt 0.906707 0.710000
vt 0.920982 0.690000
vt 0.906707 0.690000
vt 0.913040 0.830000
vt 0.898765 0.830000
vt 0.913040 0.810000
vt 0.898765 0.810000
vt 0.920982 0.670000
vt 0.906707 0.670000
vt 0.913040 0.790000
vt 0.898765 0.790000
vt 0.696470 0.530000
vt 0.884490 0.810000
vt 0.884490 0.790000
vt 0.716657 0.530000
vt 0.736845 0.530000
vt 0.569432 0.890000
vt 0.569432 0.910000
vt 0.555157 0.910000
vt 0.555157 0.890000
vt 0.569432 0.930000
vt 0.555157 0.930000
vt 0.884490 0.830000
vt 0.624081 0.910000
vt 0.638356 0.910000
vt 0.638356 0.930000
vt 0.624081 0.930000
vt 0.121843 0.830000
vt 0.136117 0.830000
vt 0.136117 0.850000
vt 0.121843 0.850000
vt 0.107568 0.830000
vt 0.107568 0.850000
vt 0.761931 0.910000
vt 0.776205 0.910000
vt 0.776205 0.930000
vt 0.761931 0.930000
vt 0.776205 0.950000
vt 0.761931 0.950000
vt 0.955444 0.130000
vt 0.969719 0.130000
vt 0.969719 0.150000
vt 0.955444 0.150000
vt 0.969719 0.170000
vt 0.955444 0.170000
vt 0.232157 0.644142
vt 0.232157 0.630000
vt 0.252344 0.630000
vt 0.252344 0.644142
vt 0.272532 0.630000
vt 0.272532 0.644142
vt 0.232157 0.658284
vt 0.252344 0.658284
vt 0.272532 0.658284
vt 0.232157 0.672426
vt 0.252344 0.672426
vt 0.272532 0.672426
vt 0.232157 0.686569
vt 0.252344 0.686569
vt 0.272532 0.686569
vt 0.232157 0.700711
vt 0.252344 0.700711
vt 0.272532 0.700711
vt 0.232157 0.714853
vt 0.252344 0.714853
vt 0.272532 0.714853
vt 0.252344 0.728995
vt 0.252344 0.743137
vt 0.488682 0.890000
vt 0.474407 0.890000
vt 0.292719 0.714853
vt 0.211969 0.714853
vt 0.292719 0.700711
vt 0.211969 0.700711
vt 0.292719 0.686569
vt 0.211969 0.686569
vt 0.292719 0.672426
vt 0.211969 0.672426
vt 0.292719 0.658284
vt 0.211969 0.658284
vt 0.292719 0.644142
vt 0.211969 0.644142
vt 0.292719 0.630000
vt 0.211969 0.630000
vt 0.969719 0.190000
vt 0.955444 0.190000
vt 0.955444 0.110000
vt 0.969719 0.110000
vt 0.776205 0.970000
vt 0.761931 0.970000
vt 0.761931 0.890000
vt 0.776205 0.890000
vt 0.107568 0.810000
vt 0.121843 0.810000
vt 0.136117 0.810000
vt 0.624081 0.890000
vt 0.638356 0.890000
vt 0.920982 0.750000
vt 0.906707 0.750000
vt 0.920982 0.110000
vt 0.935256 0.110000
vt 0.941169 0.490000
vt 0.955444 0.490000
vt 0.955444 0.510000
vt 0.941169 0.510000
vt 0.989906 0.630000
vt 0.975631 0.630000
vt 0.975631 0.610000
vt 0.989906 0.610000
vt 0.569432 0.850000
vt 0.555157 0.850000
vt 0.555157 0.830000
vt 0.569432 0.830000
vt 0.583706 0.850000
vt 0.583706 0.830000
vt 0.597981 0.850000
vt 0.597981 0.830000
vt 0.612256 0.850000
vt 0.612256 0.830000
vt 0.626531 0.850000
vt 0.626531 0.830000
vt 0.941169 0.690000
vt 0.955444 0.690000
vt 0.955444 0.710000
vt 0.941169 0.710000
vt 0.920982 0.530000
vt 0.906707 0.530000
vt 0.906707 0.510000
vt 0.920982 0.510000
vt 0.941169 0.670000
vt 0.955444 0.670000
vt 0.920982 0.550000
vt 0.906707 0.550000
vt 0.817595 0.470000
vt 0.817595 0.450000
vt 0.837782 0.450000
vt 0.837782 0.470000
vt 0.817595 0.430000
vt 0.837782 0.430000
vt 0.626531 0.870000
vt 0.612256 0.870000
vt 0.817595 0.410000
vt 0.837782 0.410000
vt 0.597981 0.870000
vt 0.817595 0.390000
vt 0.837782 0.390000
vt 0.583706 0.870000
vt 0.817595 0.370000
vt 0.837782 0.370000
vt 0.569432 0.870000
vt 0.817595 0.350000
vt 0.837782 0.350000
vt 0.555157 0.870000
vt 0.817595 0.330000
vt 0.837782 0.330000
vt 0.989906 0.650000
vt 0.975631 0.650000
vt 0.941169 0.470000
vt 0.955444 0.470000
vt 0.906707 0.110000
s 1
f 5/1/1 8/2/1 2/3/1 1/4/1
f 1/4/1 2/3/1 189/5/1 3/6/1
f 4/7/1 1/4/1 3/6/1 226/8/1
f 7/9/1 5/1/1 1/4/1 4/7/1
f 6/10/1 10/11/1 8/2/1 5/1/1
f 19/12/1 6/10/1 5/1/1 7/9/1
f 138/13/2 2/14/2 8/15/2 9/16/2
f 9/16/2 8/15/2 10/17/2 11/18/2
f 11/19/2 10/20/2 12/21/2 13/22/2
f 14/23/1 12/24/1 10/11/1 6/10/1
f 15/25/3 13/26/3 12/27/3 14/28/3
f 17/29/3 15/30/3 14/31/3 16/32/3
f 16/33/1 14/23/1 6/10/1 19/12/1
f 156/34/3 17/29/3 16/32/3 18/35/3
f 18/36/1 16/33/1 19/12/1 20/37/1
f 20/37/1 19/12/1 7/9/1 21/38/1
f 23/39/1 18/36/1 20/37/1 22/40/1
f 22/40/1 20/37/1 21/38/1 24/41/1
f 26/42/1 23/39/1 22/40/1 25/43/1
f 25/43/1 22/40/1 24/41/1 27/44/1
f 29/45/1 26/42/1 25/43/1 28/46/1
f 28/46/1 25/43/1 27/44/1 30/47/1
f 32/48/1 29/45/1 28/46/1 31/49/1
f 31/49/1 28/46/1 30/47/1 33/50/1
f 35/51/1 32/48/1 31/49/1 34/52/1
f 34/52/1 31/49/1 33/50/1 36/53/1
f 38/54/1 35/51/1 34/52/1 37/55/1
f 37/55/1 34/52/1 36/53/1 39/56/1
f 41/57/1 38/54/1 37/55/1 40/58/1
f 40/58/1 37/55/1 39/56/1 42/59/1
f 44/60/1 41/57/1 40/58/1 43/61/1
f 43/61/1 40/58/1 42/59/1 45/62/1
f 48/63/1 44/60/1 43/61/1 46/64/1
f 46/64/1 43/61/1 45/62/1 49/65/1
f 49/66/4 50/67/4 47/68/4 46/69/4
f 46/70/4 47/71/4 183/72/4 48/73/4
f 51/74/4 54/75/4 50/76/4 49/77/4
f 49/65/1 45/62/1 52/78/1 51/79/1
f 51/79/1 52/78/1 211/80/1 53/81/1
f 53/82/4 56/83/4 54/84/4 51/85/4
f 54/75/4 55/86/4 185/87/4 50/76/4
f 56/83/4 58/88/4 55/89/4 54/84/4
f 56/83/5 57/90/5 59/91/5 58/88/5
f 53/82/5 211/92/5 57/90/5 56/83/5
f 58/88/5 59/91/5 61/93/5 60/94/5
f 58/88/4 60/94/4 63/95/4 55/89/4
f 60/94/5 61/93/5 83/96/5 62/97/5
f 60/94/4 62/97/4 65/98/4 63/95/4
f 55/86/4 63/99/4 64/100/4 185/87/4
f 63/99/4 65/101/4 67/102/4 64/100/4
f 65/103/6 66/104/6 68/105/6 67/106/6
f 62/107/6 83/108/6 66/104/6 65/103/6
f 67/106/6 68/105/6 72/109/6 69/110/6
f 64/111/4 67/112/4 69/113/4 70/114/4
f 70/115/4 69/116/4 71/117/4 182/118/4
f 69/110/6 72/109/6 73/119/6 71/120/6
f 72/109/6 74/121/6 75/122/6 73/119/6
f 68/105/6 77/123/6 74/121/6 72/109/6
f 74/121/6 76/124/6 186/125/6 75/122/6
f 77/123/6 78/126/6 76/124/6 74/121/6
f 79/127/6 80/128/6 78/126/6 77/123/6
f 66/104/6 79/127/6 77/123/6 68/105/6
f 81/129/6 84/130/6 80/128/6 79/127/6
f 83/108/6 81/129/6 79/127/6 66/104/6
f 82/131/5 85/132/5 84/133/5 81/134/5
f 61/135/5 82/136/5 81/137/5 83/138/5
f 85/139/5 87/140/5 86/141/5 84/142/5
f 84/130/6 86/143/6 89/144/6 80/128/6
f 87/140/5 202/145/5 88/146/5 86/141/5
f 86/143/6 88/147/6 90/148/6 89/144/6
f 89/144/6 90/148/6 92/149/6 91/150/6
f 80/128/6 89/144/6 91/150/6 78/126/6
f 91/150/6 92/149/6 95/151/6 93/152/6
f 78/126/6 91/150/6 93/152/6 76/124/6
f 76/124/6 93/152/6 94/153/6 186/125/6
f 93/152/6 95/151/6 96/154/6 94/153/6
f 95/151/6 97/155/6 98/156/6 96/154/6
f 92/149/6 100/157/6 97/155/6 95/151/6
f 97/155/6 99/158/6 187/159/6 98/156/6
f 100/157/6 101/160/6 99/158/6 97/155/6
f 102/161/6 103/162/6 101/160/6 100/157/6
f 90/148/6 102/161/6 100/157/6 92/149/6
f 104/163/6 106/164/6 103/162/6 102/161/6
f 88/147/6 104/163/6 102/161/6 90/148/6
f 105/165/5 107/166/5 106/167/5 104/168/5
f 202/145/5 105/165/5 104/168/5 88/146/5
f 107/166/5 109/169/5 108/170/5 106/167/5
f 106/164/6 108/171/6 111/172/6 103/162/6
f 109/173/5 193/174/5 110/175/5 108/176/5
f 108/171/6 110/177/6 112/178/6 111/172/6
f 111/172/6 112/178/6 114/179/6 113/180/6
f 103/162/6 111/172/6 113/180/6 101/160/6
f 113/180/6 114/179/6 117/181/6 115/182/6
f 101/160/6 113/180/6 115/182/6 99/158/6
f 99/158/6 115/182/6 116/183/6 187/159/6
f 115/182/6 117/181/6 118/184/6 116/183/6
f 117/181/6 119/185/6 120/186/6 118/184/6
f 114/179/6 122/187/6 119/185/6 117/181/6
f 119/185/6 121/188/6 188/189/6 120/186/6
f 122/187/6 123/190/6 121/188/6 119/185/6
f 124/191/6 125/192/6 123/190/6 122/187/6
f 112/178/6 124/191/6 122/187/6 114/179/6
f 126/193/6 128/194/6 125/192/6 124/191/6
f 110/177/6 126/193/6 124/191/6 112/178/6
f 127/195/5 130/196/5 128/197/5 126/198/5
f 193/199/5 127/200/5 126/201/5 110/202/5
f 128/194/6 129/203/6 142/204/6 125/192/6
f 130/196/5 131/205/5 129/206/5 128/197/5
f 132/207/5 135/208/5 131/205/5 130/196/5
f 134/209/5 132/207/5 130/196/5 127/195/5
f 133/210/5 136/211/5 135/208/5 132/207/5
f 190/212/5 133/210/5 132/207/5 134/209/5
f 135/213/2 136/214/2 138/215/2 137/216/2
f 131/217/2 135/213/2 137/216/2 140/218/2
f 137/219/2 138/13/2 9/16/2 139/220/2
f 140/221/2 137/219/2 139/220/2 141/222/2
f 129/223/2 131/217/2 140/218/2 142/224/2
f 142/225/2 140/221/2 141/222/2 143/226/2
f 125/192/6 142/204/6 143/227/6 123/190/6
f 143/226/2 141/222/2 146/228/2 144/229/2
f 123/190/6 143/227/6 144/230/6 121/188/6
f 121/188/6 144/230/6 145/231/6 188/189/6
f 144/232/2 146/233/2 147/234/2 145/235/2
f 146/233/2 148/236/2 149/237/2 147/234/2
f 141/222/2 139/220/2 148/238/2 146/228/2
f 148/236/2 11/19/2 13/22/2 149/237/2
f 139/220/2 9/16/2 11/18/2 148/238/2
f 151/239/3 147/240/3 149/241/3 150/242/3
f 150/242/3 149/241/3 13/26/3 15/25/3
f 153/243/3 151/244/3 150/245/3 152/246/3
f 152/246/3 150/245/3 15/30/3 17/29/3
f 155/247/3 153/243/3 152/246/3 154/248/3
f 154/248/3 152/246/3 17/29/3 156/34/3
f 158/249/3 155/250/3 154/251/3 157/252/3
f 157/252/3 154/251/3 156/253/3 159/254/3
f 161/255/3 158/256/3 157/257/3 160/258/3
f 160/258/3 157/257/3 159/259/3 162/260/3
f 164/261/3 161/262/3 160/263/3 163/264/3
f 163/264/3 160/263/3 162/265/3 165/266/3
f 167/267/3 164/261/3 163/264/3 166/268/3
f 166/268/3 163/264/3 165/266/3 168/269/3
f 170/270/3 167/267/3 166/268/3 169/271/3
f 169/271/3 166/268/3 168/269/3 171/272/3
f 173/273/3 170/270/3 169/271/3 172/274/3
f 172/274/3 169/271/3 171/272/3 174/275/3
f 176/276/3 173/273/3 172/274/3 175/277/3
f 175/277/3 172/274/3 174/275/3 177/278/3
f 179/279/3 176/276/3 175/277/3 178/280/3
f 178/280/3 175/277/3 177/278/3 180/281/3
f 182/118/3 179/279/3 178/280/3 181/282/3
f 181/282/3 178/280/3 180/281/3 183/72/3
f 184/283/4 70/115/4 182/118/4 181/282/4
f 47/71/4 184/283/4 181/282/4 183/72/4
f 50/67/4 185/284/4 184/285/4 47/68/4
f 185/284/4 64/111/4 70/114/4 184/285/4
f 183/72/3 180/281/3 44/286/3 48/73/3
f 71/117/3 73/287/3 179/279/3 182/118/3
f 180/281/3 177/278/3 41/288/3 44/286/3
f 73/287/3 75/289/3 176/276/3 179/279/3
f 177/278/3 174/275/3 38/290/3 41/288/3
f 75/289/3 186/291/3 173/273/3 176/276/3
f 174/275/3 171/272/3 35/292/3 38/290/3
f 186/291/3 94/293/3 170/270/3 173/273/3
f 171/272/3 168/269/3 32/294/3 35/292/3
f 94/293/3 96/295/3 167/267/3 170/270/3
f 168/269/3 165/266/3 29/296/3 32/294/3
f 96/295/3 98/297/3 164/261/3 167/267/3
f 165/266/3 162/265/3 26/298/3 29/296/3
f 98/297/3 187/299/3 161/262/3 164/261/3
f 162/260/3 159/259/3 23/300/3 26/301/3
f 187/302/3 116/303/3 158/256/3 161/255/3
f 159/254/3 156/253/3 18/304/3 23/305/3
f 116/306/3 118/307/3 155/250/3 158/249/3
f 118/308/3 120/309/3 153/243/3 155/247/3
f 120/309/3 188/310/3 151/244/3 153/243/3
f 188/311/3 145/312/3 147/240/3 151/239/3
f 136/214/2 189/313/2 2/314/2 138/215/2
f 3/315/5 189/316/5 136/211/5 133/210/5
f 192/317/5 190/318/5 134/319/5 191/320/5
f 191/320/5 134/319/5 127/200/5 193/199/5
f 195/321/5 192/322/5 191/323/5 194/324/5
f 194/324/5 191/323/5 193/174/5 109/173/5
f 197/325/5 195/326/5 194/327/5 196/328/5
f 196/328/5 194/327/5 109/169/5 107/166/5
f 199/329/5 197/325/5 196/328/5 198/330/5
f 198/330/5 196/328/5 107/166/5 105/165/5
f 201/331/5 199/329/5 198/330/5 200/332/5
f 200/332/5 198/330/5 105/165/5 202/145/5
f 204/333/5 201/331/5 200/332/5 203/334/5
f 203/334/5 200/332/5 202/145/5 87/140/5
f 206/335/5 204/333/5 203/334/5 205/336/5
f 205/336/5 203/334/5 87/140/5 85/139/5
f 208/337/5 206/338/5 205/339/5 207/340/5
f 207/340/5 205/339/5 85/132/5 82/131/5
f 57/341/5 208/342/5 207/343/5 59/344/5
f 59/344/5 207/343/5 82/136/5 61/135/5
f 209/345/5 212/346/5 206/338/5 208/337/5
f 211/347/5 209/348/5 208/342/5 57/341/5
f 210/349/1 213/350/1 212/351/1 209/352/1
f 52/78/1 210/349/1 209/352/1 211/80/1
f 213/350/1 215/353/1 214/354/1 212/351/1
f 212/355/5 214/356/5 204/333/5 206/335/5
f 215/353/1 217/357/1 216/358/1 214/354/1
f 214/356/5 216/359/5 201/331/5 204/333/5
f 217/357/1 219/360/1 218/361/1 216/358/1
f 216/359/5 218/362/5 199/329/5 201/331/5
f 219/360/1 221/363/1 220/364/1 218/361/1
f 218/362/5 220/365/5 197/325/5 199/329/5
f 221/363/1 223/366/1 222/367/1 220/364/1
f 220/365/5 222/368/5 195/326/5 197/325/5
f 223/366/1 225/369/1 224/370/1 222/367/1
f 222/371/5 224/372/5 192/322/5 195/321/5
f 225/369/1 4/7/1 226/8/1 224/370/1
f 224/373/5 226/374/5 190/318/5 192/317/5
f 226/375/5 3/315/5 133/210/5 190/212/5
f 24/41/1 21/38/1 225/369/1 223/366/1
f 21/38/1 7/9/1 4/7/1 225/369/1
f 27/44/1 24/41/1 223/366/1 221/363/1
f 30/47/1 27/44/1 221/363/1 219/360/1
f 33/50/1 30/47/1 219/360/1 217/357/1
f 36/53/1 33/50/1 217/357/1 215/353/1
f 39/56/1 36/53/1 215/353/1 213/350/1
f 42/59/1 39/56/1 213/350/1 210/349/1
f 45/62/1 42/59/1 210/349/1 52/78/1
